<?xml version="1.0" encoding="UTF-8"?>
<svg xmlns="http://www.w3.org/2000/svg" id="baby-clothes" version="1.1" width="512px" height="512px" style="shape-rendering:geometricPrecision; text-rendering:geometricPrecision; image-rendering:optimizeQuality; fill-rule:evenodd; clip-rule:evenodd" xmlns:xlink="http://www.w3.org/1999/xlink">
<g><path style="opacity:0.939" fill="#000000" d="M 178.5,-0.5 C 183.167,-0.5 187.833,-0.5 192.5,-0.5C 224.228,16.0125 257.228,19.5125 291.5,10C 300.954,7.35459 309.954,3.85459 318.5,-0.5C 323.167,-0.5 327.833,-0.5 332.5,-0.5C 357.928,8.47977 383.262,17.9798 408.5,28C 437.5,49.6667 466.5,71.3333 495.5,93C 507.421,102.436 510.587,114.269 505,128.5C 495,150.5 485,172.5 475,194.5C 468.001,206.747 457.501,211.58 443.5,209C 433.667,206.167 423.833,203.333 414,200.5C 413.5,200.833 413,201.167 412.5,201.5C 416.57,222.63 419.07,243.964 420,265.5C 420.555,288.861 420.221,312.195 419,335.5C 426.667,377.167 434.333,418.833 442,460.5C 443.48,470.378 439.647,477.211 430.5,481C 392.962,490.882 355.628,501.049 318.5,511.5C 314.167,511.5 309.833,511.5 305.5,511.5C 301.572,509.408 298.406,506.408 296,502.5C 282.99,463.968 269.49,425.635 255.5,387.5C 241.904,425.786 228.404,464.119 215,502.5C 212.594,506.408 209.428,509.408 205.5,511.5C 201.167,511.5 196.833,511.5 192.5,511.5C 155.372,501.049 118.038,490.882 80.5,481C 71.3533,477.211 67.52,470.378 69,460.5C 76.6667,418.833 84.3333,377.167 92,335.5C 90.8175,312.526 90.4841,289.526 91,266.5C 91.8564,244.625 94.3564,222.958 98.5,201.5C 98,201.167 97.5,200.833 97,200.5C 85.015,204.371 72.8483,207.371 60.5,209.5C 49.3042,209.484 41.1375,204.484 36,194.5C 26,172.5 16,150.5 6,128.5C 0.412805,114.269 3.57947,102.436 15.5,93C 44.5,71.3333 73.5,49.6667 102.5,28C 127.749,17.9765 153.083,8.47652 178.5,-0.5 Z M 173.5,20.5 C 172.264,86.7457 204.93,116.579 271.5,110C 308.007,105.825 329.173,85.6579 335,49.5C 335.168,39.8162 335.668,30.1495 336.5,20.5C 354.722,27.0733 372.888,33.74 391,40.5C 382.55,62.3078 377.216,84.9744 375,108.5C 372.196,139.114 379.029,167.28 395.5,193C 394.928,195.291 394.594,197.625 394.5,200C 402.3,245.906 404.467,292.073 401,338.5C 406.74,367.952 411.907,397.285 416.5,426.5C 377.954,438.075 339.288,448.908 300.5,459C 290.338,430.517 280.172,402.017 270,373.5C 262.435,365.66 253.935,364.493 244.5,370C 241.894,371.938 240.061,374.438 239,377.5C 229.889,404.834 220.389,432 210.5,459C 173.081,449.31 135.748,438.976 98.5,428C 96.5789,427.64 94.9122,426.806 93.5,425.5C 99.2134,396.555 104.713,367.555 110,338.5C 109.002,315.186 108.668,291.852 109,268.5C 110.11,245.513 112.61,222.68 116.5,200C 116.406,197.625 116.072,195.291 115.5,193C 134.746,161.705 140.912,127.872 134,91.5C 131.086,74.2611 126.253,57.5944 119.5,41.5C 120.09,40.2011 121.09,39.3678 122.5,39C 139.789,33.2956 156.789,27.1289 173.5,20.5 Z M 194.5,20.5 C 224.21,33.4844 254.876,36.6511 286.5,30C 296.681,27.8284 306.514,24.6617 316,20.5C 323.284,67.6103 303.117,91.6103 255.5,92.5C 208.061,91.6749 187.728,67.6749 194.5,20.5 Z M 102.5,50.5 C 110.012,66.2231 114.846,82.8898 117,100.5C 121.614,129.166 116.447,155.832 101.5,180.5C 89.1279,183.843 76.7946,187.343 64.5,191C 59.788,192.443 55.9547,191.277 53,187.5C 42.6667,164.833 32.3333,142.167 22,119.5C 21.3333,117.167 21.3333,114.833 22,112.5C 23.8333,110.667 25.6667,108.833 27.5,107C 52.9265,88.6323 77.9265,69.799 102.5,50.5 Z M 407.5,50.5 C 435.074,70.5669 462.241,91.2336 489,112.5C 489.667,114.833 489.667,117.167 489,119.5C 479,141.5 469,163.5 459,185.5C 456.549,191.089 452.383,192.922 446.5,191C 434.248,187.194 421.915,183.694 409.5,180.5C 395.987,158.778 390.487,135.111 393,109.5C 394.859,89.0636 399.693,69.3969 407.5,50.5 Z M 189.5,162.5 C 199.945,161.035 208.612,164.202 215.5,172C 201.241,181.018 190.574,193.185 183.5,208.5C 171.71,200.629 168.21,189.963 173,176.5C 176.685,169.591 182.185,164.924 189.5,162.5 Z M 309.5,162.5 C 331.767,161.927 341.6,172.594 339,194.5C 337.182,200.818 333.349,205.485 327.5,208.5C 320.426,193.185 309.759,181.018 295.5,172C 299.436,167.549 304.103,164.382 309.5,162.5 Z M 246.5,179.5 C 278.293,177.491 300.126,191.158 312,220.5C 319.322,253.349 308.155,277.516 278.5,293C 243.874,303.798 218.041,293.298 201,261.5C 190.639,231.081 198.472,206.581 224.5,188C 231.618,184.245 238.951,181.412 246.5,179.5 Z M 252.5,247.5 C 261.726,247.633 264.726,251.966 261.5,260.5C 256.225,264.945 251.725,264.278 248,258.5C 247.333,256.5 247.333,254.5 248,252.5C 249.366,250.638 250.866,248.972 252.5,247.5 Z M 90.5,444.5 C 128.583,455.188 166.583,466.188 204.5,477.5C 202.425,482.724 200.758,488.058 199.5,493.5C 161.578,484.104 123.911,473.937 86.5,463C 87.992,456.887 89.3253,450.72 90.5,444.5 Z M 418.5,444.5 C 419.75,444.577 420.583,445.244 421,446.5C 421.903,452.095 423.07,457.595 424.5,463C 387.161,474.252 349.495,484.419 311.5,493.5C 310.334,488.17 308.668,483.003 306.5,478C 306.833,477.667 307.167,477.333 307.5,477C 344.663,466.297 381.663,455.464 418.5,444.5 Z"/></g>
<g><path style="opacity:0.937" fill="#000000" d="M 186.5,144.5 C 206.107,142.142 221.774,148.809 233.5,164.5C 248.167,160.5 262.833,160.5 277.5,164.5C 293.654,143.962 313.654,139.128 337.5,150C 356.803,163.678 362.636,181.845 355,204.5C 350.361,214.305 343.195,221.639 333.5,226.5C 335.726,264.694 320.06,292.528 286.5,310C 244.159,324.333 210.992,312.833 187,275.5C 179.797,259.986 176.631,243.653 177.5,226.5C 156.077,214.416 148.577,196.416 155,172.5C 160.686,157.642 171.186,148.309 186.5,144.5 Z M 189.5,162.5 C 182.185,164.924 176.685,169.591 173,176.5C 168.21,189.963 171.71,200.629 183.5,208.5C 190.574,193.185 201.241,181.018 215.5,172C 208.612,164.202 199.945,161.035 189.5,162.5 Z M 309.5,162.5 C 304.103,164.382 299.436,167.549 295.5,172C 309.759,181.018 320.426,193.185 327.5,208.5C 333.349,205.485 337.182,200.818 339,194.5C 341.6,172.594 331.767,161.927 309.5,162.5 Z M 246.5,179.5 C 238.951,181.412 231.618,184.245 224.5,188C 198.472,206.581 190.639,231.081 201,261.5C 218.041,293.298 243.874,303.798 278.5,293C 308.155,277.516 319.322,253.349 312,220.5C 300.126,191.158 278.293,177.491 246.5,179.5 Z M 252.5,247.5 C 250.866,248.972 249.366,250.638 248,252.5C 247.333,254.5 247.333,256.5 248,258.5C 251.725,264.278 256.225,264.945 261.5,260.5C 264.726,251.966 261.726,247.633 252.5,247.5 Z"/></g>
<g><path style="opacity:0.878" fill="#000000" d="M 227.5,203.5 C 236.551,203.92 240.051,208.586 238,217.5C 232.593,222.765 227.26,222.765 222,217.5C 219.821,211.198 221.654,206.531 227.5,203.5 Z"/></g>
<g><path style="opacity:0.878" fill="#000000" d="M 278.5,203.5 C 288.088,203.692 291.588,208.359 289,217.5C 283.74,222.765 278.407,222.765 273,217.5C 271.022,211.13 272.855,206.463 278.5,203.5 Z"/></g>
<g><path style="opacity:0.934" fill="#000000" d="M 249.5,229.5 C 271.978,228.478 282.478,239.144 281,261.5C 274.343,279.402 261.843,285.235 243.5,279C 230.286,270.357 226.453,258.523 232,243.5C 236.237,236.755 242.071,232.088 249.5,229.5 Z M 252.5,247.5 C 250.866,248.972 249.366,250.638 248,252.5C 247.333,254.5 247.333,256.5 248,258.5C 251.725,264.278 256.225,264.945 261.5,260.5C 264.726,251.966 261.726,247.633 252.5,247.5 Z"/></g>
</svg>
