<?xml version="1.0" encoding="UTF-8"?>
<svg xmlns="http://www.w3.org/2000/svg" version="1.1" width="512px" height="512px" style="shape-rendering:geometricPrecision; text-rendering:geometricPrecision; image-rendering:optimizeQuality; fill-rule:evenodd; clip-rule:evenodd" xmlns:xlink="http://www.w3.org/1999/xlink">
<g><path style="opacity:0.941" fill="#000000" d="M 313.5,-0.5 C 316.167,-0.5 318.833,-0.5 321.5,-0.5C 325.46,1.63421 327.627,4.96754 328,9.5C 328.667,27.5 328.667,45.5 328,63.5C 325.846,72.5635 320.346,75.3968 311.5,72C 309.951,70.786 308.785,69.286 308,67.5C 307.333,46.5 307.333,25.5 308,4.5C 309.73,2.59809 311.563,0.93142 313.5,-0.5 Z"/></g>
<g><path style="opacity:0.928" fill="#000000" d="M 231.5,15.5 C 233.927,15.523 236.26,16.023 238.5,17C 252,30.5 265.5,44 279,57.5C 282.245,66.3441 279.245,71.6774 270,73.5C 267.268,73.3852 264.768,72.5519 262.5,71C 250,58.5 237.5,46 225,33.5C 220.735,25.0491 222.902,19.0491 231.5,15.5 Z"/></g>
<g><path style="opacity:0.928" fill="#000000" d="M 399.5,15.5 C 411.006,16.8469 414.506,22.8469 410,33.5C 397.5,46 385,58.5 372.5,71C 365.101,75.3755 359.267,73.8755 355,66.5C 354.21,63.366 354.543,60.366 356,57.5C 370.116,42.8804 384.616,28.8804 399.5,15.5 Z"/></g>
<g><path style="opacity:0.964" fill="#000000" d="M 511.5,203.5 C 511.5,292.5 511.5,381.5 511.5,470.5C 505.728,492.606 491.728,506.273 469.5,511.5C 326.833,511.5 184.167,511.5 41.5,511.5C 19.2724,506.273 5.27243,492.606 -0.5,470.5C -0.5,381.5 -0.5,292.5 -0.5,203.5C 4.98567,182.515 18.319,169.348 39.5,164C 51.4611,162.692 63.4611,162.192 75.5,162.5C 72.0352,134.724 84.0352,118.724 111.5,114.5C 138.965,118.724 150.965,134.724 147.5,162.5C 166.503,162.667 185.503,162.5 204.5,162C 216.126,142.582 227.626,123.082 239,103.5C 240.952,101.106 243.452,99.6064 246.5,99C 293.833,98.3333 341.167,98.3333 388.5,99C 391.548,99.6064 394.048,101.106 396,103.5C 407.374,123.082 418.874,142.582 430.5,162C 444.198,162.162 457.865,162.829 471.5,164C 492.681,169.348 506.014,182.515 511.5,203.5 Z M 254.5,119.5 C 296.501,119.333 338.501,119.5 380.5,120C 388.959,133.75 397.292,147.584 405.5,161.5C 346.836,162.667 288.17,162.833 229.5,162C 237.719,147.723 246.052,133.557 254.5,119.5 Z M 109.5,135.5 C 119.614,136.113 125.447,141.446 127,151.5C 127.499,155.152 127.665,158.818 127.5,162.5C 116.833,162.5 106.167,162.5 95.5,162.5C 94.9072,155.494 96.0738,148.827 99,142.5C 102.043,139.246 105.543,136.913 109.5,135.5 Z M 47.5,183.5 C 186.167,183.333 324.834,183.5 463.5,184C 480.73,186.897 489.897,197.063 491,214.5C 491.667,296.5 491.667,378.5 491,460.5C 489.848,475.652 482.015,485.486 467.5,490C 326.167,490.667 184.833,490.667 43.5,490C 28.9851,485.486 21.1518,475.652 20,460.5C 19.3333,378.5 19.3333,296.5 20,214.5C 21.2894,197.05 30.4561,186.717 47.5,183.5 Z M 313.5,275.5 C 347.801,276.391 369.301,293.391 378,326.5C 381.019,364.465 364.185,388.299 327.5,398C 290.042,400.53 266.542,383.696 257,347.5C 254.799,306.879 273.632,282.879 313.5,275.5 Z"/></g>
<g><path style="opacity:0.942" fill="#000000" d="M 311.5,210.5 C 368.439,211.029 409.272,236.696 434,287.5C 454.481,344.423 442.648,393.59 398.5,435C 354.418,467.776 307.418,472.443 257.5,449C 209.375,420.255 187.542,377.755 192,321.5C 193.438,309.748 196.438,298.415 201,287.5C 206.708,281.285 212.708,280.952 219,286.5C 220.006,288.534 220.506,290.7 220.5,293C 217.192,302.934 214.692,313.101 213,323.5C 209.357,375.399 230.857,412.565 277.5,435C 324.125,451.135 364.292,441.302 398,405.5C 425.019,370.853 430.019,333.186 413,292.5C 386.414,244.461 345.914,225.295 291.5,235C 286.5,236.667 281.5,238.333 276.5,240C 264.604,241.102 260.438,235.936 264,224.5C 265.167,223.333 266.333,222.167 267.5,221C 281.77,215.251 296.436,211.751 311.5,210.5 Z"/></g>
<g><path style="opacity:0.939" fill="#000000" d="M 83.5,244.5 C 102.17,244.333 120.836,244.5 139.5,245C 147.079,247.483 149.579,252.65 147,260.5C 145.457,262.378 143.624,263.878 141.5,265C 121.5,265.667 101.5,265.667 81.5,265C 77.2072,263.22 75.2072,260.054 75.5,255.5C 75.1516,249.529 77.8183,245.863 83.5,244.5 Z"/></g>
<g><path style="opacity:0.896" fill="#000000" d="M 233.5,244.5 C 243.103,245.031 246.937,250.031 245,259.5C 241.252,265.542 236.085,267.042 229.5,264C 224.414,259.494 223.58,254.327 227,248.5C 229.013,246.752 231.18,245.418 233.5,244.5 Z"/></g>
<g><path style="opacity:0.945" fill="#000000" d="M 312.5,254.5 C 349.396,254.607 376.229,270.941 393,303.5C 407.018,340.93 399.518,373.43 370.5,401C 344.924,420.484 316.924,424.817 286.5,414C 258.816,401.467 241.983,380.3 236,350.5C 232.138,304.694 251.638,273.861 294.5,258C 300.581,256.503 306.581,255.336 312.5,254.5 Z M 313.5,275.5 C 273.632,282.879 254.799,306.879 257,347.5C 266.542,383.696 290.042,400.53 327.5,398C 364.185,388.299 381.019,364.465 378,326.5C 369.301,293.391 347.801,276.391 313.5,275.5 Z"/></g>
<g><path style="opacity:0.929" fill="#000000" d="M 313.5,297.5 C 336.776,296.944 351.276,307.944 357,330.5C 359.389,344.45 353.889,349.617 340.5,346C 338.959,344.421 337.792,342.587 337,340.5C 336.149,326.315 328.649,318.815 314.5,318C 307.947,315.27 305.78,310.437 308,303.5C 309.36,300.977 311.193,298.977 313.5,297.5 Z"/></g>
</svg>
