<?xml version="1.0" encoding="UTF-8"?>
<svg xmlns="http://www.w3.org/2000/svg" version="1.1" width="512px" height="512px" style="shape-rendering:geometricPrecision; text-rendering:geometricPrecision; image-rendering:optimizeQuality; fill-rule:evenodd; clip-rule:evenodd" xmlns:xlink="http://www.w3.org/1999/xlink">
<g><path style="opacity:0.935" fill="#000000" d="M 511.5,290.5 C 511.5,310.833 511.5,331.167 511.5,351.5C 509.99,352.836 508.323,354.003 506.5,355C 493.67,355.981 481.004,355.314 468.5,353C 471.483,358.092 473.316,363.592 474,369.5C 474.667,393.167 474.667,416.833 474,440.5C 473.167,443.333 471.333,445.167 468.5,446C 401.833,446.667 335.167,446.667 268.5,446C 265.572,444.74 263.739,442.573 263,439.5C 262.069,414.468 262.402,389.468 264,364.5C 265.011,360.632 266.511,356.966 268.5,353.5C 268,353.167 267.5,352.833 267,352.5C 257.636,354.709 248.136,356.042 238.5,356.5C 239.761,360.061 240.594,363.728 241,367.5C 241.667,391.833 241.667,416.167 241,440.5C 240.167,443.333 238.333,445.167 235.5,446C 179.5,446.667 123.5,446.667 67.5,446C 60.473,441.862 59.8063,436.862 65.5,431C 118.832,430.5 172.166,430.333 225.5,430.5C 225.667,409.831 225.5,389.164 225,368.5C 221.495,351.997 211.329,342.831 194.5,341C 187.144,340.169 179.811,340.335 172.5,341.5C 162.493,372.333 141.826,383.499 110.5,375C 95.3718,368.22 86.3718,356.72 83.5,340.5C 72.3789,339.961 61.3789,340.795 50.5,343C 40.6379,347.54 34.1379,355.04 31,365.5C 30.5,387.164 30.3334,408.831 30.5,430.5C 39.1584,429.327 42.9918,432.994 42,441.5C 41.5348,442.931 40.7014,444.097 39.5,445C 32.1667,447 24.8333,447 17.5,445C 16.2986,444.097 15.4652,442.931 15,441.5C 14.3333,415.5 14.3333,389.5 15,363.5C 19.3966,343.437 31.5632,330.937 51.5,326C 58.8233,325.223 66.1566,324.556 73.5,324C 52.2711,309.375 38.6044,289.542 32.5,264.5C 15.538,261.534 4.53802,251.867 -0.5,235.5C -0.5,229.5 -0.5,223.5 -0.5,217.5C 1.16604,212.7 3.33271,208.034 6,203.5C 10.4013,198.93 14.9013,194.596 19.5,190.5C 14.9635,167.397 12.6301,144.064 12.5,120.5C 12.8013,113.392 13.6346,106.392 15,99.5C 18.2559,97.5715 21.7559,97.0715 25.5,98C 32.2653,99.8662 38.9319,102.033 45.5,104.5C 64.9748,77.2635 91.6415,64.0968 125.5,65C 177.504,62.0638 214.004,84.2304 235,131.5C 237.136,137.709 238.802,144.042 240,150.5C 241.004,165.818 241.838,181.151 242.5,196.5C 249.831,202.821 254.331,210.821 256,220.5C 257.632,218.067 259.132,215.567 260.5,213C 254.382,174.092 265.049,140.758 292.5,113C 315.667,93.2124 342.333,84.8791 372.5,88C 405.792,86.7334 432.958,98.9 454,124.5C 454.152,133.348 449.985,136.515 441.5,134C 424.442,114.139 402.775,103.972 376.5,103.5C 374.34,112.052 369.507,114.052 362,109.5C 360.872,107.655 360.372,105.655 360.5,103.5C 319.713,105.794 292.547,126.128 279,164.5C 276.14,176.665 274.973,188.998 275.5,201.5C 291.17,201.667 306.837,201.5 322.5,201C 347.152,197.677 359.985,183.51 361,158.5C 365.375,153.619 370.042,153.285 375,157.5C 375.314,173.296 381.814,185.796 394.5,195C 400.686,198.618 407.352,200.618 414.5,201C 429.83,201.5 445.163,201.667 460.5,201.5C 461.681,186.317 460.014,171.484 455.5,157C 456.992,150.582 460.992,148.249 467.5,150C 468.416,150.374 469.25,150.874 470,151.5C 472.935,158.571 474.935,165.904 476,173.5C 476.822,186.742 476.655,199.909 475.5,213C 484.662,224.318 486.662,236.818 481.5,250.5C 497.26,259.583 507.26,272.917 511.5,290.5 Z M 125.5,80.5 C 163.903,77.7849 193.403,92.4516 214,124.5C 224.355,144.659 227.855,165.992 224.5,188.5C 186.875,187.673 149.208,187.173 111.5,187C 87.7422,181.909 73.2422,167.409 68,143.5C 64.284,141.066 60.4507,140.899 56.5,143C 45.806,153.877 38.306,166.71 34,181.5C 30.1126,160.005 28.6126,138.338 29.5,116.5C 36.3764,118.404 43.2097,120.404 50,122.5C 51.4411,121.74 52.9411,121.074 54.5,120.5C 70.6273,93.9328 94.294,80.5995 125.5,80.5 Z M 58.5,166.5 C 68.1414,185.003 83.1414,196.836 103.5,202C 144.18,202.988 184.847,203.988 225.5,205C 240.063,213.077 243.563,224.577 236,239.5C 230.492,246.336 223.325,249.502 214.5,249C 212.671,249.273 211.171,250.107 210,251.5C 198.472,301.029 167.306,324.862 116.5,323C 77.0331,315.533 53.5331,292.033 46,252.5C 42.2435,249.064 37.7435,247.564 32.5,248C 15.8433,241.375 11.3433,229.875 19,213.5C 25.0469,206.146 32.8802,202.646 42.5,203C 43.6667,201.833 44.8333,200.667 46,199.5C 48.1129,187.653 52.2796,176.653 58.5,166.5 Z M 367.5,191.5 C 371.553,196.057 375.887,200.557 380.5,205C 390.381,212.933 401.715,216.933 414.5,217C 428.901,217.051 443.235,217.718 457.5,219C 470.762,228.901 471.762,239.901 460.5,252C 455.875,254.704 450.875,256.038 445.5,256C 443.998,256.583 442.665,257.416 441.5,258.5C 431.12,303.054 403.12,324.22 357.5,322C 323.258,314.758 302.758,293.924 296,259.5C 292.243,256.064 287.743,254.564 282.5,255C 269.061,248.682 265.561,238.848 272,225.5C 274.205,222.96 276.705,220.793 279.5,219C 293.765,217.718 308.099,217.051 322.5,217C 342.092,216.214 357.092,207.714 367.5,191.5 Z M 252.5,242.5 C 253.246,245.139 254.246,247.806 255.5,250.5C 237.888,260.374 227.721,275.374 225,295.5C 224.667,308.833 224.333,322.167 224,335.5C 211.272,326.774 197.105,322.941 181.5,324C 203.211,309.755 216.878,289.922 222.5,264.5C 236.485,262.516 246.485,255.183 252.5,242.5 Z M 263.5,264.5 C 268.894,267.189 274.56,269.356 280.5,271C 281.428,271.388 282.095,272.055 282.5,273C 284.079,278.738 286.246,284.238 289,289.5C 290.666,323.335 274.499,340.002 240.5,339.5C 240.096,323.457 240.596,307.457 242,291.5C 245.374,279.387 252.541,270.387 263.5,264.5 Z M 469.5,264.5 C 480.948,267.775 488.781,275.108 493,286.5C 494.869,291.318 495.869,296.318 496,301.5C 496.5,314.162 496.667,326.829 496.5,339.5C 475.275,341.475 459.775,333.142 450,314.5C 447.15,307.068 446.15,299.402 447,291.5C 449.888,285.723 452.221,279.723 454,273.5C 459.319,270.781 464.486,267.781 469.5,264.5 Z M 304.5,312.5 C 311.432,318.971 319.099,324.471 327.5,329C 317.114,329.407 306.781,329.74 296.5,330C 300.23,324.641 302.896,318.808 304.5,312.5 Z M 431.5,312.5 C 433.801,318.601 436.801,324.434 440.5,330C 430.219,329.74 419.886,329.407 409.5,329C 417.583,324.406 424.916,318.906 431.5,312.5 Z M 98.5,335.5 C 117.689,340.821 136.856,340.821 156,335.5C 154.827,348.359 147.994,356.859 135.5,361C 121.853,364.118 111.019,359.951 103,348.5C 100.798,344.394 99.2981,340.06 98.5,335.5 Z M 343.5,335.5 C 360.157,339.474 376.823,339.474 393.5,335.5C 395.986,349.35 391.319,359.85 379.5,367C 362.384,372.636 350.551,367.136 344,350.5C 343.501,345.511 343.334,340.511 343.5,335.5 Z M 302.5,345.5 C 310.833,345.5 319.167,345.5 327.5,345.5C 329.942,370.275 343.609,383.608 368.5,385.5C 393.391,383.608 407.058,370.275 409.5,345.5C 419.233,345.109 428.9,345.609 438.5,347C 449.41,351.653 455.91,359.82 458,371.5C 458.5,391.164 458.667,410.831 458.5,430.5C 398.5,430.5 338.5,430.5 278.5,430.5C 278.071,409.46 278.571,388.46 280,367.5C 283.793,356.22 291.293,348.886 302.5,345.5 Z"/></g>
<g><path style="opacity:0.897" fill="#000000" d="M 80.5,216.5 C 85.2797,215.641 88.7797,217.308 91,221.5C 91.6667,229.167 91.6667,236.833 91,244.5C 87.8465,249.492 83.6798,250.492 78.5,247.5C 77.4164,246.335 76.5831,245.002 76,243.5C 75.3333,236.5 75.3333,229.5 76,222.5C 76.5985,219.746 78.0985,217.746 80.5,216.5 Z"/></g>
<g><path style="opacity:0.897" fill="#000000" d="M 168.5,216.5 C 173.28,215.641 176.78,217.308 179,221.5C 179.667,229.167 179.667,236.833 179,244.5C 173.6,251.154 168.6,250.82 164,243.5C 163.333,236.167 163.333,228.833 164,221.5C 165.025,219.313 166.525,217.646 168.5,216.5 Z"/></g>
<g><path style="opacity:0.904" fill="#000000" d="M 319.5,226.5 C 323.514,226.334 327.514,226.501 331.5,227C 333.286,227.785 334.786,228.951 336,230.5C 338,238.5 338,246.5 336,254.5C 331.924,258.034 327.591,258.367 323,255.5C 321.958,251.241 321.125,246.907 320.5,242.5C 315.478,240.455 313.644,236.789 315,231.5C 316.025,229.313 317.525,227.646 319.5,226.5 Z"/></g>
<g><path style="opacity:0.898" fill="#000000" d="M 404.5,226.5 C 409.599,226.175 414.599,226.675 419.5,228C 423.949,234.03 422.949,238.863 416.5,242.5C 415.675,246.122 415.175,249.789 415,253.5C 412.089,257.277 408.256,258.444 403.5,257C 401.951,255.786 400.785,254.286 400,252.5C 399.333,245.833 399.333,239.167 400,232.5C 400.599,229.746 402.099,227.746 404.5,226.5 Z"/></g>
<g><path style="opacity:0.912" fill="#000000" d="M 104.5,261.5 C 112.833,260.329 117,263.996 117,272.5C 121.852,281.121 128.186,282.455 136,276.5C 137.588,271.848 139.421,267.348 141.5,263C 146.413,260.413 150.58,261.247 154,265.5C 155.081,284.255 146.248,294.589 127.5,296.5C 109.254,294.757 100.421,284.757 101,266.5C 101.997,264.677 103.164,263.01 104.5,261.5 Z"/></g>
<g><path style="opacity:0.913" fill="#000000" d="M 349.5,266.5 C 354.021,266.392 357.188,268.392 359,272.5C 359.498,281.164 363.998,284.664 372.5,283C 373.667,281.833 374.833,280.667 376,279.5C 376.904,275.889 378.071,272.389 379.5,269C 384.834,265.292 389.334,266.125 393,271.5C 394.057,283.552 389.224,292.385 378.5,298C 361.9,302.781 350.4,297.281 344,281.5C 343.333,278.167 343.333,274.833 344,271.5C 345.107,268.887 346.94,267.22 349.5,266.5 Z"/></g>
</svg>
