<?xml version="1.0" encoding="UTF-8"?>
<svg xmlns="http://www.w3.org/2000/svg" version="1.1" width="512px" height="512px" style="shape-rendering:geometricPrecision; text-rendering:geometricPrecision; image-rendering:optimizeQuality; fill-rule:evenodd; clip-rule:evenodd" xmlns:xlink="http://www.w3.org/1999/xlink">
<g><path style="opacity:0.927" fill="#000000" d="M 202.5,-0.5 C 205.167,-0.5 207.833,-0.5 210.5,-0.5C 221.151,15.9402 227.984,33.9402 231,53.5C 239.568,56.617 247.901,60.2837 256,64.5C 264.099,60.2837 272.432,56.617 281,53.5C 284.016,33.9379 290.85,15.9379 301.5,-0.5C 304.167,-0.5 306.833,-0.5 309.5,-0.5C 326.05,13.9336 335.217,32.2669 337,54.5C 346.729,60.9662 352.062,69.9662 353,81.5C 350.642,91.5982 347.976,101.598 345,111.5C 339.967,115.779 335.3,115.446 331,110.5C 331.381,99.9616 333.214,89.6283 336.5,79.5C 331.39,69.0191 322.89,64.0191 311,64.5C 299.791,65.3437 288.958,67.8437 278.5,72C 271.143,75.5975 263.643,78.7642 256,81.5C 248.357,78.7642 240.857,75.5975 233.5,72C 219.693,65.7893 205.36,63.7893 190.5,66C 183.246,68.2538 178.246,72.9205 175.5,80C 182.665,106.158 188.165,132.658 192,159.5C 213.117,160.828 234.45,161.494 256,161.5C 277.167,161.333 298.333,161.167 319.5,161C 320.866,151.118 322.699,141.284 325,131.5C 328.795,128.197 332.962,127.697 337.5,130C 338.786,132.022 339.786,134.189 340.5,136.5C 335.449,159.343 334.283,182.343 337,205.5C 370.652,263.818 408.985,318.818 452,370.5C 461.934,382.437 472.601,393.77 484,404.5C 487.138,408.454 487.138,412.454 484,416.5C 467.762,428.708 450.595,439.542 432.5,449C 434.489,453.781 433.489,457.781 429.5,461C 383.827,489.724 334.161,506.557 280.5,511.5C 264.5,511.5 248.5,511.5 232.5,511.5C 202.835,508.877 174.002,502.211 146,491.5C 142.206,481.972 145.373,477.472 155.5,478C 245.68,508.31 331.68,499.31 413.5,451C 370.524,391.256 334.024,327.423 304,259.5C 300.95,249.881 304.45,245.715 314.5,247C 315.416,247.374 316.25,247.874 317,248.5C 345.812,313.826 380.479,375.493 421,433.5C 421.667,434.167 422.333,434.833 423,435.5C 437.521,427.788 451.355,419.121 464.5,409.5C 410.009,349.512 362.675,284.346 322.5,214C 278.167,213.333 233.833,213.333 189.5,214C 149.325,284.346 101.991,349.512 47.5,409.5C 60.6454,419.121 74.4788,427.788 89,435.5C 130.369,377.798 165.369,316.132 194,250.5C 196.955,246.723 200.788,245.557 205.5,247C 209.035,249.707 210.202,253.207 209,257.5C 179.03,326.336 142.196,390.836 98.5,451C 108.352,457.428 118.685,463.095 129.5,468C 133.719,473.695 132.719,478.362 126.5,482C 124.833,482.667 123.167,482.667 121.5,482C 106.304,475.489 92.1369,467.323 79,457.5C 78.2228,454.571 78.3895,451.737 79.5,449C 61.4051,439.542 44.2385,428.708 28,416.5C 25.781,411.931 26.1143,407.598 29,403.5C 56.9195,374.927 82.5861,344.594 106,312.5C 131.079,277.355 154.412,241.022 176,203.5C 176.849,187.137 176.516,170.804 175,154.5C 170.586,128.932 165.086,103.599 158.5,78.5C 160.751,68.5994 166.084,60.9327 174.5,55.5C 176.458,32.9165 185.792,14.2498 202.5,-0.5 Z M 203.5,21.5 C 208.583,30.0747 211.917,39.408 213.5,49.5C 206.496,48.9896 199.496,48.3229 192.5,47.5C 194.627,38.0989 198.294,29.4323 203.5,21.5 Z M 307.5,21.5 C 313.596,29.0852 317.596,37.7519 319.5,47.5C 313.166,48.2447 306.833,48.9114 300.5,49.5C 299.833,49.1667 299.167,48.8333 298.5,48.5C 300.906,39.282 303.906,30.282 307.5,21.5 Z M 192.5,178.5 C 234.833,178.5 277.167,178.5 319.5,178.5C 319.5,184.833 319.5,191.167 319.5,197.5C 277.167,197.5 234.833,197.5 192.5,197.5C 192.5,191.167 192.5,184.833 192.5,178.5 Z"/></g>
</svg>
