<?xml version="1.0" encoding="UTF-8"?>
<svg xmlns="http://www.w3.org/2000/svg" version="1.1" width="512px" height="512px" style="shape-rendering:geometricPrecision; text-rendering:geometricPrecision; image-rendering:optimizeQuality; fill-rule:evenodd; clip-rule:evenodd" xmlns:xlink="http://www.w3.org/1999/xlink">
<g><path style="opacity:0.949" fill="#000000" d="M 511.5,274.5 C 511.5,335.833 511.5,397.167 511.5,458.5C 508.384,467.781 502.051,473.948 492.5,477C 465.5,477.667 438.5,477.667 411.5,477C 400.589,474.421 394.089,467.587 392,456.5C 391.5,429.502 391.333,402.502 391.5,375.5C 357.833,375.5 324.167,375.5 290.5,375.5C 290.5,392.167 290.5,408.833 290.5,425.5C 302.21,425.168 313.876,425.668 325.5,427C 347.103,433.94 357.936,448.774 358,471.5C 357.226,473.939 355.726,475.773 353.5,477C 241.833,477.667 130.167,477.667 18.5,477C 8.94947,473.948 2.61613,467.781 -0.5,458.5C -0.5,379.833 -0.5,301.167 -0.5,222.5C 5.93485,207.938 17.2682,201.605 33.5,203.5C 33.3333,158.165 33.5,112.832 34,67.5C 38.5,49.6667 49.6667,38.5 67.5,34C 192.833,33.3333 318.167,33.3333 443.5,34C 461.333,38.5 472.5,49.6667 477,67.5C 477.5,130.166 477.667,192.832 477.5,255.5C 494.259,252.668 505.592,259.001 511.5,274.5 Z M 70.5,51.5 C 193.834,51.3333 317.167,51.5 440.5,52C 450,54.8333 456.167,61 459,70.5C 459.5,132.166 459.667,193.832 459.5,255.5C 443.163,255.333 426.83,255.5 410.5,256C 400.118,259.048 393.951,265.881 392,276.5C 391.501,280.821 391.334,285.154 391.5,289.5C 329.167,289.5 266.833,289.5 204.5,289.5C 204.938,265.381 204.438,241.381 203,217.5C 231,189.5 259,161.5 287,133.5C 290.832,125.671 288.498,120.671 280,118.5C 277.679,118.909 275.513,119.743 273.5,121C 245.5,149 217.5,177 189.5,205C 143.587,203.547 97.5874,203.047 51.5,203.5C 51.3333,159.165 51.5,114.832 52,70.5C 55.0174,60.9839 61.1841,54.6505 70.5,51.5 Z M 24.5,221.5 C 76.1677,221.333 127.834,221.5 179.5,222C 182.196,222.69 184.363,224.19 186,226.5C 186.5,292.832 186.667,359.166 186.5,425.5C 130.167,425.5 73.8333,425.5 17.5,425.5C 17.3333,359.166 17.5,292.832 18,226.5C 19.8049,224.174 21.9716,222.508 24.5,221.5 Z M 414.5,273.5 C 439.502,273.333 464.502,273.5 489.5,274C 490.667,275.167 491.833,276.333 493,277.5C 493.5,326.832 493.667,376.166 493.5,425.5C 465.5,425.5 437.5,425.5 409.5,425.5C 409.333,376.832 409.5,328.166 410,279.5C 410.804,276.854 412.304,274.854 414.5,273.5 Z M 204.5,307.5 C 266.833,307.5 329.167,307.5 391.5,307.5C 391.5,324.167 391.5,340.833 391.5,357.5C 329.167,357.5 266.833,357.5 204.5,357.5C 204.5,340.833 204.5,324.167 204.5,307.5 Z M 204.5,375.5 C 209.833,375.5 215.167,375.5 220.5,375.5C 220.5,392.167 220.5,408.833 220.5,425.5C 215.167,425.5 209.833,425.5 204.5,425.5C 204.5,408.833 204.5,392.167 204.5,375.5 Z M 238.5,375.5 C 249.833,375.5 261.167,375.5 272.5,375.5C 272.5,392.167 272.5,408.833 272.5,425.5C 261.167,425.5 249.833,425.5 238.5,425.5C 238.5,408.833 238.5,392.167 238.5,375.5 Z M 17.5,443.5 C 73.8333,443.5 130.167,443.5 186.5,443.5C 186.665,447.182 186.499,450.848 186,454.5C 185.167,456.667 183.667,458.167 181.5,459C 128.167,459.667 74.8333,459.667 21.5,459C 20.3333,457.833 19.1667,456.667 18,455.5C 17.5012,451.514 17.3345,447.514 17.5,443.5 Z M 204.5,443.5 C 242.501,443.333 280.501,443.5 318.5,444C 327.708,445.605 334.375,450.605 338.5,459C 293.496,459.833 248.496,459.667 203.5,458.5C 204.448,453.565 204.781,448.565 204.5,443.5 Z M 409.5,443.5 C 437.5,443.5 465.5,443.5 493.5,443.5C 493.666,447.514 493.499,451.514 493,455.5C 491.833,456.667 490.667,457.833 489.5,459C 464.5,459.667 439.5,459.667 414.5,459C 412.274,457.773 410.774,455.939 410,453.5C 409.502,450.183 409.335,446.85 409.5,443.5 Z"/></g>
<g><path style="opacity:0.924" fill="#000000" d="M 234.5,67.5 C 248.504,67.3334 262.504,67.5001 276.5,68C 282.769,72.9031 283.102,78.2364 277.5,84C 276.5,84.3333 275.5,84.6667 274.5,85C 261.833,85.6667 249.167,85.6667 236.5,85C 230.531,82.8967 228.364,78.73 230,72.5C 231.366,70.6383 232.866,68.9717 234.5,67.5 Z"/></g>
<g><path style="opacity:0.921" fill="#000000" d="M 329.5,118.5 C 339.072,118.649 342.572,123.316 340,132.5C 310.833,161.667 281.667,190.833 252.5,220C 245.181,222.502 240.515,220.002 238.5,212.5C 239.036,210.058 239.869,207.725 241,205.5C 270.09,175.909 299.59,146.909 329.5,118.5 Z"/></g>
<g><path style="opacity:0.916" fill="#000000" d="M 91.5,305.5 C 95.0071,304.994 98.1737,305.66 101,307.5C 101.905,311.819 102.238,316.152 102,320.5C 89.5,333 77,345.5 64.5,358C 52.432,360.93 48.2653,356.43 52,344.5C 65.0617,331.271 78.2284,318.271 91.5,305.5 Z"/></g>
<g><path style="opacity:0.914" fill="#000000" d="M 142.5,305.5 C 153.165,304.659 156.998,309.326 154,319.5C 141.167,332.333 128.333,345.167 115.5,358C 107.766,360.969 103.099,358.469 101.5,350.5C 101.295,347.771 102.128,345.438 104,343.5C 116.728,330.604 129.562,317.937 142.5,305.5 Z"/></g>
<g><path style="opacity:0.864" fill="#000000" d="M 251.5,323.5 C 261.323,322.488 265.489,326.822 264,336.5C 258.958,342.602 253.625,342.935 248,337.5C 245.43,331.842 246.596,327.175 251.5,323.5 Z"/></g>
<g><path style="opacity:0.911" fill="#000000" d="M 460.5,328.5 C 469.817,327.984 473.65,332.317 472,341.5C 463.864,350.637 455.364,359.47 446.5,368C 440.058,372.124 434.892,370.957 431,364.5C 430.416,361.743 430.75,359.077 432,356.5C 441.395,346.937 450.895,337.604 460.5,328.5 Z"/></g>
</svg>
