<?xml version="1.0" encoding="UTF-8"?>
<svg xmlns="http://www.w3.org/2000/svg" version="1.1" width="512px" height="512px" style="shape-rendering:geometricPrecision; text-rendering:geometricPrecision; image-rendering:optimizeQuality; fill-rule:evenodd; clip-rule:evenodd" xmlns:xlink="http://www.w3.org/1999/xlink">
<g><path style="opacity:0.978" fill="#000000" d="M 177.5,15.5 C 192.17,15.3334 206.837,15.5001 221.5,16C 226,17.8333 229.167,21 231,25.5C 231.5,32.8258 231.666,40.1591 231.5,47.5C 250.901,43.2367 266.234,49.07 277.5,65C 290.056,69.6248 303.056,71.9581 316.5,72C 321.333,74.1667 324.833,77.6667 327,82.5C 327.667,101.833 327.667,121.167 327,140.5C 324.833,145.333 321.333,148.833 316.5,151C 303.056,151.042 290.056,153.375 277.5,158C 276.833,158.667 276.167,159.333 275.5,160C 282.667,165.833 289.167,172.333 295,179.5C 295.667,198.167 295.667,216.833 295,235.5C 289.532,241.969 283.699,248.136 277.5,254C 251.585,255.158 225.585,255.658 199.5,255.5C 173.415,255.658 147.415,255.158 121.5,254C 115.301,248.136 109.468,241.969 104,235.5C 103.333,216.833 103.333,198.167 104,179.5C 109.833,172.333 116.333,165.833 123.5,160C 117.812,156.102 111.479,153.769 104.5,153C 81.8576,151.782 59.1909,151.115 36.5,151C 30.3333,148.833 26.1667,144.667 24,138.5C 23.3333,120.5 23.3333,102.5 24,84.5C 26.1667,78.3333 30.3333,74.1667 36.5,72C 59.1909,71.8847 81.8576,71.2181 104.5,70C 110.905,69.1983 116.905,67.1983 122.5,64C 133.68,48.7667 148.68,43.2667 167.5,47.5C 167.334,40.1591 167.5,32.8258 168,25.5C 170.022,20.98 173.189,17.6467 177.5,15.5 Z M 183.5,31.5 C 194.167,31.5 204.833,31.5 215.5,31.5C 215.5,36.8333 215.5,42.1667 215.5,47.5C 204.833,47.5 194.167,47.5 183.5,47.5C 183.5,42.1667 183.5,36.8333 183.5,31.5 Z M 151.5,63.5 C 183.502,63.3334 215.502,63.5 247.5,64C 257.132,65.2993 262.299,70.7993 263,80.5C 263.667,101.167 263.667,121.833 263,142.5C 262.299,152.201 257.132,157.701 247.5,159C 215.5,159.667 183.5,159.667 151.5,159C 141.868,157.701 136.701,152.201 136,142.5C 135.333,121.833 135.333,101.167 136,80.5C 136.884,70.7875 142.051,65.1208 151.5,63.5 Z M 115.5,84.5 C 116.833,84.5 118.167,84.5 119.5,84.5C 119.5,102.5 119.5,120.5 119.5,138.5C 115.149,137.83 110.816,136.996 106.5,136C 85.1667,135.667 63.8333,135.333 42.5,135C 41.1509,134.228 40.3176,133.061 40,131.5C 39.3333,118.167 39.3333,104.833 40,91.5C 40.2492,90.376 40.7492,89.376 41.5,88.5C 63.1236,87.6775 84.7903,87.1775 106.5,87C 109.742,86.5939 112.742,85.7605 115.5,84.5 Z M 279.5,84.5 C 289.705,86.6794 300.038,88.0128 310.5,88.5C 311.65,103.455 311.817,118.455 311,133.5C 310.5,134 310,134.5 309.5,135C 299.346,135.018 289.346,136.184 279.5,138.5C 279.5,120.5 279.5,102.5 279.5,84.5 Z M 131.5,175.5 C 176.835,175.333 222.168,175.5 267.5,176C 271.333,179.833 275.167,183.667 279,187.5C 279.667,200.833 279.667,214.167 279,227.5C 275.167,231.333 271.333,235.167 267.5,239C 222.167,239.667 176.833,239.667 131.5,239C 127.667,235.167 123.833,231.333 120,227.5C 119.333,214.167 119.333,200.833 120,187.5C 124.037,183.631 127.87,179.631 131.5,175.5 Z"/></g>
<g><path style="opacity:0.986" fill="#000000" d="M 374.5,15.5 C 401.835,15.3334 429.169,15.5 456.5,16C 466.443,18.9429 473.609,25.1095 478,34.5C 479.488,108.122 479.988,181.789 479.5,255.5C 487.208,256.701 492.375,261.034 495,268.5C 495.667,339.833 495.667,411.167 495,482.5C 492.833,488.667 488.667,492.833 482.5,495C 437.833,495.667 393.167,495.667 348.5,495C 342.333,492.833 338.167,488.667 336,482.5C 335.5,473.506 335.334,464.506 335.5,455.5C 314.167,455.5 292.833,455.5 271.5,455.5C 274.283,475.464 266.283,488.631 247.5,495C 204.833,495.667 162.167,495.667 119.5,495C 100.712,488.619 92.7122,475.452 95.5,455.5C 79.4965,455.667 63.4965,455.5 47.5,455C 35.4409,451.941 27.6076,444.441 24,432.5C 23.5,408.169 23.3334,383.836 23.5,359.5C 20.0388,359.854 17.5388,358.521 16,355.5C 15.3333,331.5 15.3333,307.5 16,283.5C 17.5388,280.479 20.0388,279.146 23.5,279.5C 23.0505,269.395 23.5505,259.395 25,249.5C 25.7504,248.874 26.5838,248.374 27.5,248C 40.8333,247.333 54.1667,247.333 67.5,248C 68.4162,248.374 69.2496,248.874 70,249.5C 71.4495,259.395 71.9495,269.395 71.5,279.5C 74.9612,279.146 77.4612,280.479 79,283.5C 79.6667,307.5 79.6667,331.5 79,355.5C 77.4612,358.521 74.9612,359.854 71.5,359.5C 71.5,375.5 71.5,391.5 71.5,407.5C 79.5,407.5 87.5,407.5 95.5,407.5C 95.3335,396.828 95.5002,386.161 96,375.5C 99.5,362.667 107.667,354.5 120.5,351C 109.173,348.426 101.007,341.926 96,331.5C 95.3333,320.833 95.3333,310.167 96,299.5C 104.403,284.547 117.236,277.88 134.5,279.5C 155.378,277.675 168.878,286.675 175,306.5C 175.5,321.496 175.667,336.496 175.5,351.5C 180.833,351.5 186.167,351.5 191.5,351.5C 191.044,329.78 191.544,308.113 193,286.5C 200.575,269.456 213.742,261.789 232.5,263.5C 249.764,261.88 262.597,268.547 271,283.5C 271.667,294.167 271.667,304.833 271,315.5C 264.475,328.35 253.975,335.017 239.5,335.5C 239.5,340.833 239.5,346.167 239.5,351.5C 251.215,351.274 260.382,355.94 267,365.5C 268.725,368.674 270.058,372.007 271,375.5C 271.5,386.161 271.667,396.828 271.5,407.5C 292.833,407.5 314.167,407.5 335.5,407.5C 335.015,360.107 335.515,312.773 337,265.5C 339.641,260.856 343.475,257.689 348.5,256C 376.165,255.5 403.831,255.333 431.5,255.5C 431.5,191.5 431.5,127.5 431.5,63.5C 420.833,63.5 410.167,63.5 399.5,63.5C 399.5,84.8333 399.5,106.167 399.5,127.5C 402.961,127.146 405.461,128.479 407,131.5C 407.667,155.5 407.667,179.5 407,203.5C 405.461,206.521 402.961,207.854 399.5,207.5C 399.949,217.605 399.449,227.605 398,237.5C 397.25,238.126 396.416,238.626 395.5,239C 382.167,239.667 368.833,239.667 355.5,239C 354.584,238.626 353.75,238.126 353,237.5C 351.551,227.605 351.051,217.605 351.5,207.5C 348.039,207.854 345.539,206.521 344,203.5C 343.333,179.5 343.333,155.5 344,131.5C 345.539,128.479 348.039,127.146 351.5,127.5C 351.333,97.8315 351.5,68.1648 352,38.5C 355.35,26.6515 362.85,18.9849 374.5,15.5 Z M 382.5,31.5 C 404.503,31.3334 426.503,31.5 448.5,32C 455.038,32.3463 459.538,35.5129 462,41.5C 463.484,112.796 463.984,184.13 463.5,255.5C 458.167,255.5 452.833,255.5 447.5,255.5C 447.667,187.499 447.5,119.499 447,51.5C 446.5,49.6667 445.333,48.5 443.5,48C 424.833,47.3333 406.167,47.3333 387.5,48C 386.584,48.3742 385.75,48.8742 385,49.5C 383.518,75.4108 383.018,101.411 383.5,127.5C 378.167,127.5 372.833,127.5 367.5,127.5C 367.333,100.498 367.5,73.4979 368,46.5C 369.012,37.6566 373.845,32.6566 382.5,31.5 Z M 359.5,143.5 C 370.167,143.5 380.833,143.5 391.5,143.5C 391.5,159.5 391.5,175.5 391.5,191.5C 380.833,191.5 370.167,191.5 359.5,191.5C 359.5,175.5 359.5,159.5 359.5,143.5 Z M 367.5,207.5 C 372.833,207.5 378.167,207.5 383.5,207.5C 383.5,212.833 383.5,218.167 383.5,223.5C 378.167,223.5 372.833,223.5 367.5,223.5C 367.5,218.167 367.5,212.833 367.5,207.5 Z M 39.5,263.5 C 44.8333,263.5 50.1667,263.5 55.5,263.5C 55.5,268.833 55.5,274.167 55.5,279.5C 50.1667,279.5 44.8333,279.5 39.5,279.5C 39.5,274.167 39.5,268.833 39.5,263.5 Z M 355.5,271.5 C 396.53,271.184 437.53,271.517 478.5,272.5C 479.585,281.799 479.752,291.132 479,300.5C 478.5,301.667 477.667,302.5 476.5,303C 435.833,303.667 395.167,303.667 354.5,303C 353.333,302.5 352.5,301.667 352,300.5C 351.248,291.132 351.415,281.799 352.5,272.5C 353.791,272.737 354.791,272.404 355.5,271.5 Z M 226.5,279.5 C 237.897,277.85 247.397,281.183 255,289.5C 255.667,296.167 255.667,302.833 255,309.5C 252.463,312.372 249.63,314.872 246.5,317C 239.245,318.402 232.078,319.902 225,321.5C 223.693,339.41 223.026,357.41 223,375.5C 221.134,382.347 216.968,384.18 210.5,381C 209.283,379.352 208.45,377.519 208,375.5C 207.333,350.167 207.333,324.833 208,299.5C 209.219,288.119 215.385,281.452 226.5,279.5 Z M 31.5,295.5 C 42.1667,295.5 52.8333,295.5 63.5,295.5C 63.5,311.5 63.5,327.5 63.5,343.5C 52.8333,343.5 42.1667,343.5 31.5,343.5C 31.5,327.5 31.5,311.5 31.5,295.5 Z M 129.5,295.5 C 135.994,295.166 142.327,295.999 148.5,298C 153.144,300.641 156.311,304.475 158,309.5C 159.452,339.464 159.952,369.464 159.5,399.5C 154.167,399.5 148.833,399.5 143.5,399.5C 143.667,379.497 143.5,359.497 143,339.5C 142.5,337.667 141.333,336.5 139.5,336C 128.457,337.044 119.29,333.544 112,325.5C 111.333,318.833 111.333,312.167 112,305.5C 116.589,299.694 122.422,296.36 129.5,295.5 Z M 351.5,319.5 C 394.167,319.5 436.833,319.5 479.5,319.5C 479.82,372.53 479.487,425.53 478.5,478.5C 436.5,479.833 394.5,479.833 352.5,478.5C 351.513,425.53 351.18,372.53 351.5,319.5 Z M 407.5,351.5 C 412.833,351.5 418.167,351.5 423.5,351.5C 423.5,356.833 423.5,362.167 423.5,367.5C 418.167,367.5 412.833,367.5 407.5,367.5C 407.5,362.167 407.5,356.833 407.5,351.5 Z M 39.5,359.5 C 44.8333,359.5 50.1667,359.5 55.5,359.5C 55.0232,380.259 55.5232,400.925 57,421.5C 57.7504,422.126 58.5838,422.626 59.5,423C 71.4954,423.5 83.4954,423.667 95.5,423.5C 95.5,428.833 95.5,434.167 95.5,439.5C 81.8293,439.667 68.1626,439.5 54.5,439C 45.9034,437.402 41.0701,432.235 40,423.5C 39.5,402.169 39.3334,380.836 39.5,359.5 Z M 175.5,367.5 C 180.833,367.5 186.167,367.5 191.5,367.5C 188.705,382.752 194.372,393.252 208.5,399C 197.505,399.5 186.505,399.667 175.5,399.5C 175.5,388.833 175.5,378.167 175.5,367.5 Z M 122.5,368.5 C 124.167,368.5 125.833,368.5 127.5,368.5C 127.5,378.5 127.5,388.5 127.5,398.5C 115.611,397.081 110.778,390.415 113,378.5C 115.022,373.98 118.189,370.647 122.5,368.5 Z M 239.5,368.5 C 248.827,369.16 253.827,374.16 254.5,383.5C 254.517,390.63 251.184,395.463 244.5,398C 237.223,399.467 229.889,399.801 222.5,399C 236.322,393.534 241.988,383.367 239.5,368.5 Z M 399.5,383.5 C 410.187,383.168 420.854,383.501 431.5,384.5C 421.252,388.361 410.919,392.027 400.5,395.5C 399.509,391.555 399.176,387.555 399.5,383.5 Z M 429.5,403.5 C 431.436,407.715 432.103,412.381 431.5,417.5C 421.056,420.426 410.723,423.759 400.5,427.5C 399.507,422.88 399.173,418.214 399.5,413.5C 409.784,410.739 419.784,407.405 429.5,403.5 Z M 111.5,412.5 C 114.179,413.226 116.846,414.059 119.5,415C 162.167,415.667 204.833,415.667 247.5,415C 249.871,414.265 252.205,413.432 254.5,412.5C 255.934,431.202 255.767,449.868 254,468.5C 251.399,475.053 246.566,478.553 239.5,479C 200.461,479.97 161.461,479.637 122.5,478C 115.947,475.399 112.447,470.566 112,463.5C 111.5,446.503 111.333,429.503 111.5,412.5 Z M 271.5,423.5 C 292.833,423.5 314.167,423.5 335.5,423.5C 335.5,428.833 335.5,434.167 335.5,439.5C 314.167,439.5 292.833,439.5 271.5,439.5C 271.5,434.167 271.5,428.833 271.5,423.5 Z M 429.5,435.5 C 431.423,439.029 432.089,443.029 431.5,447.5C 420.813,447.832 410.146,447.499 399.5,446.5C 409.589,442.807 419.589,439.14 429.5,435.5 Z"/></g>
<g><path style="opacity:0.901" fill="#000000" d="M 216.5,81.5 C 221.419,84.7483 225.753,88.7483 229.5,93.5C 223.833,99.5 218.167,105.5 212.5,111.5C 220.833,120.167 229.167,128.833 237.5,137.5C 233.833,141.833 229.833,145.833 225.5,149.5C 213.818,138.651 202.651,127.318 192,115.5C 191.183,112.036 191.517,108.702 193,105.5C 201.036,97.6316 208.869,89.6316 216.5,81.5 Z"/></g>
<g><path style="opacity:1" fill="#000000" d="M 159.5,199.5 C 164.833,199.5 170.167,199.5 175.5,199.5C 175.5,204.833 175.5,210.167 175.5,215.5C 170.167,215.5 164.833,215.5 159.5,215.5C 159.5,210.167 159.5,204.833 159.5,199.5 Z"/></g>
<g><path style="opacity:1" fill="#000000" d="M 191.5,199.5 C 196.833,199.5 202.167,199.5 207.5,199.5C 207.5,204.833 207.5,210.167 207.5,215.5C 202.167,215.5 196.833,215.5 191.5,215.5C 191.5,210.167 191.5,204.833 191.5,199.5 Z"/></g>
<g><path style="opacity:1" fill="#000000" d="M 223.5,199.5 C 228.833,199.5 234.167,199.5 239.5,199.5C 239.5,204.833 239.5,210.167 239.5,215.5C 234.167,215.5 228.833,215.5 223.5,215.5C 223.5,210.167 223.5,204.833 223.5,199.5 Z"/></g>
<g><path style="opacity:1" fill="#000000" d="M 367.5,279.5 C 375.5,279.5 383.5,279.5 391.5,279.5C 391.5,284.833 391.5,290.167 391.5,295.5C 383.5,295.5 375.5,295.5 367.5,295.5C 367.5,290.167 367.5,284.833 367.5,279.5 Z"/></g>
<g><path style="opacity:1" fill="#000000" d="M 439.5,279.5 C 447.5,279.5 455.5,279.5 463.5,279.5C 463.5,284.833 463.5,290.167 463.5,295.5C 455.5,295.5 447.5,295.5 439.5,295.5C 439.5,290.167 439.5,284.833 439.5,279.5 Z"/></g>
<g><path style="opacity:0.98" fill="#000000" d="M 395.5,335.5 C 409.598,335.035 423.598,335.535 437.5,337C 438.126,337.75 438.626,338.584 439,339.5C 439.5,348.827 439.666,358.161 439.5,367.5C 442.961,367.146 445.461,368.479 447,371.5C 447.667,400.833 447.667,430.167 447,459.5C 446.5,461.333 445.333,462.5 443.5,463C 424.833,463.667 406.167,463.667 387.5,463C 385.667,462.5 384.5,461.333 384,459.5C 383.333,430.167 383.333,400.833 384,371.5C 385.539,368.479 388.039,367.146 391.5,367.5C 391.334,358.161 391.5,348.827 392,339.5C 392.69,337.65 393.856,336.316 395.5,335.5 Z M 407.5,351.5 C 407.5,356.833 407.5,362.167 407.5,367.5C 412.833,367.5 418.167,367.5 423.5,367.5C 423.5,362.167 423.5,356.833 423.5,351.5C 418.167,351.5 412.833,351.5 407.5,351.5 Z M 399.5,383.5 C 399.176,387.555 399.509,391.555 400.5,395.5C 410.919,392.027 421.252,388.361 431.5,384.5C 420.854,383.501 410.187,383.168 399.5,383.5 Z M 429.5,403.5 C 419.784,407.405 409.784,410.739 399.5,413.5C 399.173,418.214 399.507,422.88 400.5,427.5C 410.723,423.759 421.056,420.426 431.5,417.5C 432.103,412.381 431.436,407.715 429.5,403.5 Z M 429.5,435.5 C 419.589,439.14 409.589,442.807 399.5,446.5C 410.146,447.499 420.813,447.832 431.5,447.5C 432.089,443.029 431.423,439.029 429.5,435.5 Z"/></g>
</svg>
