<?xml version="1.0" encoding="UTF-8"?>
<svg xmlns="http://www.w3.org/2000/svg" version="1.1" width="512px" height="512px" style="shape-rendering:geometricPrecision; text-rendering:geometricPrecision; image-rendering:optimizeQuality; fill-rule:evenodd; clip-rule:evenodd" xmlns:xlink="http://www.w3.org/1999/xlink">
<g><path style="opacity:0.929" fill="#000000" d="M 167.5,0.5 C 219.168,0.33334 270.834,0.500007 322.5,1C 324.667,1.83333 326.167,3.33333 327,5.5C 327.5,23.1635 327.667,40.8302 327.5,58.5C 334.508,58.3337 341.508,58.5004 348.5,59C 351.773,59.9404 353.606,62.1071 354,65.5C 354.333,81.5 354.667,97.5 355,113.5C 356.655,120.811 359.655,127.478 364,133.5C 389.781,159.723 406.114,191.056 413,227.5C 427.514,231.184 435.347,240.517 436.5,255.5C 435.478,270.848 427.478,279.848 412.5,282.5C 406.787,318.26 391.287,348.926 366,374.5C 360.468,381.233 356.801,388.899 355,397.5C 354.943,414.553 354.276,431.553 353,448.5C 352.167,449.333 351.333,450.167 350.5,451C 342.841,451.5 335.174,451.666 327.5,451.5C 327.667,469.503 327.5,487.503 327,505.5C 326.535,506.931 325.701,508.097 324.5,509C 298.085,510.158 271.585,510.658 245,510.5C 218.415,510.658 191.915,510.158 165.5,509C 164.667,508.167 163.833,507.333 163,506.5C 162.5,488.17 162.333,469.836 162.5,451.5C 154.826,451.666 147.159,451.5 139.5,451C 137.667,450.5 136.5,449.333 136,447.5C 135.93,429.789 135.263,412.123 134,394.5C 132.551,389.601 130.551,384.935 128,380.5C 74.0464,323.325 61.3797,257.991 90,184.5C 98.9415,165.897 110.608,149.231 125,134.5C 130.236,127.692 133.569,120.025 135,111.5C 135.333,95.5 135.667,79.5 136,63.5C 136.833,61.3333 138.333,59.8333 140.5,59C 147.826,58.5003 155.159,58.3337 162.5,58.5C 162.333,40.4969 162.5,22.4969 163,4.5C 164.397,2.92975 165.897,1.59641 167.5,0.5 Z M 177.5,15.5 C 222.5,15.5 267.5,15.5 312.5,15.5C 312.5,40.5 312.5,65.5 312.5,90.5C 267.5,90.5 222.5,90.5 177.5,90.5C 177.5,65.5 177.5,40.5 177.5,15.5 Z M 150.5,73.5 C 154.5,73.5 158.5,73.5 162.5,73.5C 162.334,82.8393 162.5,92.1726 163,101.5C 163.465,102.931 164.299,104.097 165.5,105C 218.167,105.667 270.833,105.667 323.5,105C 325.333,104.5 326.5,103.333 327,101.5C 327.5,92.1726 327.666,82.8393 327.5,73.5C 331.5,73.5 335.5,73.5 339.5,73.5C 339.333,87.1707 339.5,100.837 340,114.5C 341.666,123.828 344.999,132.494 350,140.5C 400.043,192.382 412.043,252.049 386,319.5C 381.505,328.493 376.505,337.16 371,345.5C 362.955,354.542 355.289,363.876 348,373.5C 344.146,380.396 341.479,387.73 340,395.5C 339.5,409.496 339.333,423.496 339.5,437.5C 335.5,437.5 331.5,437.5 327.5,437.5C 327.666,428.161 327.5,418.827 327,409.5C 326.5,407.667 325.333,406.5 323.5,406C 270.833,405.333 218.167,405.333 165.5,406C 164.299,406.903 163.465,408.069 163,409.5C 162.5,418.827 162.334,428.161 162.5,437.5C 158.5,437.5 154.5,437.5 150.5,437.5C 150.667,424.496 150.5,411.496 150,398.5C 148.697,387.921 145.03,378.255 139,369.5C 89.1507,317.421 77.484,257.754 104,190.5C 112.967,172.23 124.634,155.896 139,141.5C 145.03,132.745 148.697,123.079 150,112.5C 150.5,99.5043 150.667,86.5043 150.5,73.5 Z M 231.5,146.5 C 233.5,146.5 235.5,146.5 237.5,146.5C 237.334,150.846 237.501,155.179 238,159.5C 240.513,163.212 244.013,164.378 248.5,163C 250.049,161.786 251.215,160.286 252,158.5C 252.499,154.514 252.666,150.514 252.5,146.5C 276.776,148.479 298.109,157.312 316.5,173C 313.296,175.869 310.463,179.035 308,182.5C 306.709,190.788 310.209,193.955 318.5,192C 321.646,189.688 324.646,187.188 327.5,184.5C 343.032,202.577 351.699,223.577 353.5,247.5C 348.733,247.191 344.066,247.691 339.5,249C 335.251,253.801 335.584,258.134 340.5,262C 344.821,262.499 349.154,262.666 353.5,262.5C 352.089,286.979 343.255,308.312 327,326.5C 323.815,322.302 319.815,319.302 315,317.5C 308.887,318.72 306.554,322.386 308,328.5C 310.312,331.646 312.812,334.646 315.5,337.5C 297.714,353.662 276.714,362.662 252.5,364.5C 252.825,359.401 252.325,354.401 251,349.5C 245.856,345.25 241.522,345.917 238,351.5C 237.501,355.821 237.334,360.154 237.5,364.5C 213.307,362.385 191.974,353.552 173.5,338C 177.092,335.079 179.925,331.579 182,327.5C 182.432,318.971 178.599,316.137 170.5,319C 167.984,321.683 165.317,324.183 162.5,326.5C 146.723,308.531 137.723,287.531 135.5,263.5C 140.132,262.672 144.798,262.172 149.5,262C 153.856,258.584 154.522,254.584 151.5,250C 146.388,247.987 141.055,246.987 135.5,247C 137.827,223.19 146.827,202.357 162.5,184.5C 165.354,187.188 168.354,189.688 171.5,192C 180.494,193.005 183.661,189.172 181,180.5C 178.5,178 176,175.5 173.5,173C 190.354,158.663 209.687,149.83 231.5,146.5 Z M 414.5,244.5 C 423.518,251.571 423.685,258.904 415,266.5C 414.5,259.174 414.334,251.841 414.5,244.5 Z M 242.5,251.5 C 248.62,251.259 250.287,253.759 247.5,259C 240.745,259.756 239.078,257.256 242.5,251.5 Z M 177.5,420.5 C 222.5,420.5 267.5,420.5 312.5,420.5C 312.5,445.5 312.5,470.5 312.5,495.5C 267.5,495.5 222.5,495.5 177.5,495.5C 177.5,470.5 177.5,445.5 177.5,420.5 Z"/></g>
<g><path style="opacity:0.939" fill="#000000" d="M 230.5,131.5 C 284.911,127.951 326.078,149.284 354,195.5C 372.798,233.099 373.798,271.099 357,309.5C 330.366,358.745 288.866,381.912 232.5,379C 171.72,369.555 134.886,334.721 122,274.5C 116.302,229.419 130.135,191.585 163.5,161C 183.092,144.861 205.425,135.028 230.5,131.5 Z M 231.5,146.5 C 209.687,149.83 190.354,158.663 173.5,173C 176,175.5 178.5,178 181,180.5C 183.661,189.172 180.494,193.005 171.5,192C 168.354,189.688 165.354,187.188 162.5,184.5C 146.827,202.357 137.827,223.19 135.5,247C 141.055,246.987 146.388,247.987 151.5,250C 154.522,254.584 153.856,258.584 149.5,262C 144.798,262.172 140.132,262.672 135.5,263.5C 137.723,287.531 146.723,308.531 162.5,326.5C 165.317,324.183 167.984,321.683 170.5,319C 178.599,316.137 182.432,318.971 182,327.5C 179.925,331.579 177.092,335.079 173.5,338C 191.974,353.552 213.307,362.385 237.5,364.5C 237.334,360.154 237.501,355.821 238,351.5C 241.522,345.917 245.856,345.25 251,349.5C 252.325,354.401 252.825,359.401 252.5,364.5C 276.714,362.662 297.714,353.662 315.5,337.5C 312.812,334.646 310.312,331.646 308,328.5C 306.554,322.386 308.887,318.72 315,317.5C 319.815,319.302 323.815,322.302 327,326.5C 343.255,308.312 352.089,286.979 353.5,262.5C 349.154,262.666 344.821,262.499 340.5,262C 335.584,258.134 335.251,253.801 339.5,249C 344.066,247.691 348.733,247.191 353.5,247.5C 351.699,223.577 343.032,202.577 327.5,184.5C 324.646,187.188 321.646,189.688 318.5,192C 310.209,193.955 306.709,190.788 308,182.5C 310.463,179.035 313.296,175.869 316.5,173C 298.109,157.312 276.776,148.479 252.5,146.5C 252.666,150.514 252.499,154.514 252,158.5C 251.215,160.286 250.049,161.786 248.5,163C 244.013,164.378 240.513,163.212 238,159.5C 237.501,155.179 237.334,150.846 237.5,146.5C 235.5,146.5 233.5,146.5 231.5,146.5 Z M 242.5,251.5 C 239.078,257.256 240.745,259.756 247.5,259C 250.287,253.759 248.62,251.259 242.5,251.5 Z"/></g>
<g><path style="opacity:0.918" fill="#000000" d="M 244.5,190.5 C 248.318,190.977 250.818,192.977 252,196.5C 252.333,210.167 252.667,223.833 253,237.5C 262.666,243.51 266.332,252.177 264,263.5C 274,273.5 284,283.5 294,293.5C 296.856,298.92 295.689,303.087 290.5,306C 288.029,306.706 285.695,306.373 283.5,305C 273.167,294.667 262.833,284.333 252.5,274C 232.058,276.559 223.558,267.726 227,247.5C 228.972,243.028 232.138,239.695 236.5,237.5C 237.333,223.512 237.833,209.512 238,195.5C 239.272,192.508 241.438,190.841 244.5,190.5 Z M 242.5,251.5 C 239.078,257.256 240.745,259.756 247.5,259C 250.287,253.759 248.62,251.259 242.5,251.5 Z"/></g>
</svg>
