<?xml version="1.0" encoding="UTF-8"?>
<svg xmlns="http://www.w3.org/2000/svg" version="1.1" width="512px" height="512px" style="shape-rendering:geometricPrecision; text-rendering:geometricPrecision; image-rendering:optimizeQuality; fill-rule:evenodd; clip-rule:evenodd" xmlns:xlink="http://www.w3.org/1999/xlink">
<g><path style="opacity:0.965" fill="#000000" d="M 511.5,155.5 C 511.5,162.5 511.5,169.5 511.5,176.5C 504.216,205.098 494.05,232.764 481,259.5C 477.789,280.403 475.455,301.403 474,322.5C 473.5,355.165 473.333,387.832 473.5,420.5C 475.167,420.5 476.833,420.5 478.5,420.5C 478.5,431.167 478.5,441.833 478.5,452.5C 464.5,452.5 450.5,452.5 436.5,452.5C 436.5,441.833 436.5,431.167 436.5,420.5C 438.167,420.5 439.833,420.5 441.5,420.5C 441.815,395.141 441.482,369.807 440.5,344.5C 441.306,319.016 443.64,293.682 447.5,268.5C 447,268.167 446.5,267.833 446,267.5C 435.144,270.589 424.311,273.756 413.5,277C 404.237,281.472 396.237,287.639 389.5,295.5C 377.997,307.497 367.831,320.497 359,334.5C 340.91,363.674 323.576,393.341 307,423.5C 289.206,443.332 266.873,453.332 240,453.5C 163.477,447.203 86.9773,440.703 10.5,434C 4.5812,429.93 0.91453,424.43 -0.5,417.5C -0.5,411.167 -0.5,404.833 -0.5,398.5C 2.55303,389.251 7.88637,381.418 15.5,375C 53.8333,355.167 92.1667,335.333 130.5,315.5C 133.658,318.828 136.658,322.328 139.5,326C 156.753,336.313 175.419,341.646 195.5,342C 207.89,339.97 218.89,334.97 228.5,327C 250.775,306.917 269.608,284.083 285,258.5C 302.16,226.834 320.827,196.167 341,166.5C 367.833,129 400,96.8333 437.5,70C 444.417,65.9589 451.25,61.7922 458,57.5C 480.794,87.419 498.628,120.086 511.5,155.5 Z M 448.5,101.5 C 460.739,119.975 470.906,139.642 479,160.5C 479.765,169.783 478.432,178.783 475,187.5C 470.452,201.812 465.119,215.812 459,229.5C 439.964,235.51 420.798,241.343 401.5,247C 389.277,252.942 378.277,260.609 368.5,270C 346.617,294.884 327.451,321.718 311,350.5C 302.667,365.833 294.333,381.167 286,396.5C 275.171,413.332 259.671,421.332 239.5,420.5C 170.48,415.276 101.48,409.776 32.5,404C 33.5,403 34.5,402 35.5,401C 65.2031,385.816 94.8698,370.649 124.5,355.5C 149.8,369.41 176.8,375.243 205.5,373C 220.585,369.623 234.251,363.29 246.5,354C 265.172,338.138 281.672,320.305 296,300.5C 315.128,270.692 333.461,240.359 351,209.5C 377.735,168.418 410.235,132.418 448.5,101.5 Z"/></g>
</svg>
