<?xml version="1.0" encoding="UTF-8"?>
<svg xmlns="http://www.w3.org/2000/svg" version="1.1" width="512px" height="512px" style="shape-rendering:geometricPrecision; text-rendering:geometricPrecision; image-rendering:optimizeQuality; fill-rule:evenodd; clip-rule:evenodd" xmlns:xlink="http://www.w3.org/1999/xlink">
<g><path style="opacity:0.938" fill="#000000" d="M 511.5,411.5 C 511.5,421.167 511.5,430.833 511.5,440.5C 509.35,446.148 505.35,449.981 499.5,452C 336.833,452.667 174.167,452.667 11.5,452C 5.64984,449.981 1.64984,446.148 -0.5,440.5C -0.5,430.833 -0.5,421.167 -0.5,411.5C 12.8923,386.385 26.059,361.052 39,335.5C 39.3333,247.833 39.6667,160.167 40,72.5C 40.2802,65.4182 43.7802,60.9182 50.5,59C 187.167,58.3333 323.833,58.3333 460.5,59C 467.22,60.9182 470.72,65.4182 471,72.5C 471.333,160.167 471.667,247.833 472,335.5C 484.941,361.052 498.108,386.385 511.5,411.5 Z M 55.5,74.5 C 188.833,74.5 322.167,74.5 455.5,74.5C 455.5,158.833 455.5,243.167 455.5,327.5C 322.167,327.5 188.833,327.5 55.5,327.5C 55.5,243.167 55.5,158.833 55.5,74.5 Z M 52.5,343.5 C 187.835,343.167 323.168,343.5 458.5,344.5C 469.422,365.344 480.089,386.344 490.5,407.5C 436.167,408.833 381.833,408.833 327.5,407.5C 324.668,397.506 321.835,387.506 319,377.5C 316.96,372.124 313.127,368.957 307.5,368C 272.833,367.333 238.167,367.333 203.5,368C 197.873,368.957 194.04,372.124 192,377.5C 189.165,387.506 186.332,397.506 183.5,407.5C 129.167,408.833 74.8333,408.833 20.5,407.5C 31.1932,386.114 41.8599,364.78 52.5,343.5 Z M 206.5,383.5 C 239.167,383.5 271.833,383.5 304.5,383.5C 306.342,391.868 308.342,400.202 310.5,408.5C 273.833,408.5 237.167,408.5 200.5,408.5C 202.658,400.202 204.658,391.868 206.5,383.5 Z M 14.5,424.5 C 175.167,424.5 335.833,424.5 496.5,424.5C 496.759,428.24 496.426,431.906 495.5,435.5C 335.5,436.833 175.5,436.833 15.5,435.5C 14.5741,431.906 14.2408,428.24 14.5,424.5 Z"/></g>
<g><path style="opacity:0.935" fill="#000000" d="M 78.5,89.5 C 196.5,89.3333 314.5,89.5 432.5,90C 436.944,92.1107 439.444,95.6107 440,100.5C 440.667,127.5 440.667,154.5 440,181.5C 438.535,187.653 434.702,189.82 428.5,188C 427,187.167 425.833,186 425,184.5C 424.5,158.169 424.333,131.835 424.5,105.5C 311.833,105.5 199.167,105.5 86.5,105.5C 86.6666,131.835 86.5,158.169 86,184.5C 83.4425,188.212 79.9425,189.378 75.5,188C 72.9057,186.661 71.4057,184.494 71,181.5C 70.3333,154.5 70.3333,127.5 71,100.5C 71.7639,95.5824 74.2639,91.9157 78.5,89.5 Z"/></g>
<g><path style="opacity:0.935" fill="#000000" d="M 77.5,212.5 C 80.9391,212.589 83.7724,213.922 86,216.5C 86.5,243.165 86.6666,269.831 86.5,296.5C 199.167,296.5 311.833,296.5 424.5,296.5C 424.333,269.831 424.5,243.165 425,216.5C 429.667,211.167 434.333,211.167 439,216.5C 439.333,217.833 439.667,219.167 440,220.5C 440.667,247.167 440.667,273.833 440,300.5C 439.483,305.037 437.316,308.537 433.5,311C 316.21,312.659 198.876,312.992 81.5,312C 74.914,311 71.414,307.167 71,300.5C 70.3333,273.833 70.3333,247.167 71,220.5C 71.5736,216.436 73.7402,213.769 77.5,212.5 Z"/></g>
</svg>
