<?xml version="1.0" encoding="UTF-8"?>
<svg xmlns="http://www.w3.org/2000/svg" version="1.1" width="512px" height="512px" style="shape-rendering:geometricPrecision; text-rendering:geometricPrecision; image-rendering:optimizeQuality; fill-rule:evenodd; clip-rule:evenodd" xmlns:xlink="http://www.w3.org/1999/xlink">
<g><path style="opacity:0.918" fill="#000000" d="M 511.5,288.5 C 511.5,297.5 511.5,306.5 511.5,315.5C 504.637,320.867 496.97,325.034 488.5,328C 435.198,347.729 380.198,356.062 323.5,353C 283.754,350.213 244.088,346.547 204.5,342C 185.863,340.465 167.196,339.631 148.5,339.5C 148.665,342.85 148.498,346.183 148,349.5C 147.065,352.102 145.232,353.602 142.5,354C 96.7744,354.985 51.1078,354.651 5.5,353C 5,352.5 4.5,352 4,351.5C 3.33333,335.167 3.33333,318.833 4,302.5C 4.69238,301.975 5.19238,301.308 5.5,300.5C 2.85951,294.579 0.859508,288.579 -0.5,282.5C -0.5,273.833 -0.5,265.167 -0.5,256.5C 4.16139,234.538 10.9947,213.205 20,192.5C 22.8134,188.559 26.3134,187.725 30.5,190C 60.0184,208.37 92.0184,215.37 126.5,211C 146.392,206.722 163.725,197.722 178.5,184C 187.804,175.697 196.804,167.031 205.5,158C 206.729,157.219 208.062,156.719 209.5,156.5C 250.016,169.999 286.516,190.332 319,217.5C 320.444,220.838 320.944,224.172 320.5,227.5C 336.751,236.959 353.751,244.792 371.5,251C 375.739,252.413 380.072,253.413 384.5,254C 405.496,254.8 426.496,255.467 447.5,256C 463.603,256.703 478.603,261.037 492.5,269C 498.21,273.583 502.043,279.416 504,286.5C 506.84,285.483 509.34,286.15 511.5,288.5 Z M 211.5,170.5 C 217.593,172.7 223.593,175.2 229.5,178C 226.083,182.311 224.583,187.144 225,192.5C 227.398,196.187 230.565,197.021 234.5,195C 237.004,191.005 239.671,187.172 242.5,183.5C 247.008,186.254 251.674,188.754 256.5,191C 253.356,195.758 251.856,200.925 252,206.5C 254.398,210.187 257.565,211.021 261.5,209C 264.046,205.41 266.213,201.577 268,197.5C 272.333,200.167 276.667,202.833 281,205.5C 280.17,209.837 279.004,214.171 277.5,218.5C 277.989,224.082 280.989,226.249 286.5,225C 289.782,221.847 291.948,218.013 293,213.5C 298.106,216.972 302.94,220.806 307.5,225C 305.87,237.065 304.87,249.232 304.5,261.5C 281.206,259.582 257.873,259.082 234.5,260C 211.342,261.054 190.009,267.721 170.5,280C 162.095,286.57 155.761,294.737 151.5,304.5C 107.868,302.955 64.2012,301.455 20.5,300C 14.4848,290.782 11.4848,280.615 11.5,269.5C 14.4115,247.267 20.0782,225.767 28.5,205C 46.4029,214.079 65.4029,220.412 85.5,224C 126.503,229.886 161.836,218.553 191.5,190C 198.062,183.27 204.729,176.77 211.5,170.5 Z M 318.5,241.5 C 336.986,252.406 356.652,260.573 377.5,266C 400.817,267.128 424.15,268.128 447.5,269C 459.788,269.655 471.455,272.655 482.5,278C 486.886,281.212 489.886,285.378 491.5,290.5C 430.96,316.367 367.96,325.534 302.5,318C 257.032,313.587 211.699,308.92 166.5,304C 172.955,293.598 181.955,286.264 193.5,282C 216.154,274.251 239.487,270.751 263.5,271.5C 279.878,272.52 296.211,273.686 312.5,275C 314.259,273.992 315.426,272.492 316,270.5C 316.999,260.842 317.833,251.175 318.5,241.5 Z M 496.5,302.5 C 497.5,302.5 498.5,302.5 499.5,302.5C 499.756,304.792 499.423,306.959 498.5,309C 459.549,325.905 418.882,336.238 376.5,340C 359.5,342 342.5,342 325.5,340C 284.097,337.126 242.764,333.46 201.5,329C 180.526,327.287 159.526,326.62 138.5,327C 137.667,327.833 136.833,328.667 136,329.5C 135.501,333.486 135.334,337.486 135.5,341.5C 95.5,341.5 55.5,341.5 15.5,341.5C 15.5,332.167 15.5,322.833 15.5,313.5C 65.1976,313.983 114.864,315.483 164.5,318C 210.888,321.739 257.221,326.072 303.5,331C 370.399,338.182 434.732,328.682 496.5,302.5 Z"/></g>
</svg>
