<?xml version="1.0" encoding="UTF-8"?>
<svg xmlns="http://www.w3.org/2000/svg" version="1.1" width="512px" height="512px" style="shape-rendering:geometricPrecision; text-rendering:geometricPrecision; image-rendering:optimizeQuality; fill-rule:evenodd; clip-rule:evenodd" xmlns:xlink="http://www.w3.org/1999/xlink">
<g><path style="opacity:0.929" fill="#000000" d="M 148.5,17.5 C 192.168,17.3333 235.835,17.5 279.5,18C 314.986,21.6416 342.486,38.1416 362,67.5C 368.321,79.128 372.654,91.4613 375,104.5C 376.785,126.458 377.952,148.458 378.5,170.5C 387.017,174.867 391.85,181.867 393,191.5C 393.68,218.823 380.346,233.49 353,235.5C 343.642,260.557 328.642,281.557 308,298.5C 308.14,310.541 308.973,322.541 310.5,334.5C 342.226,341.679 373.892,349.179 405.5,357C 429.141,365.652 442.974,382.485 447,407.5C 449.651,433.521 452.484,459.521 455.5,485.5C 454.132,493.401 449.799,495.568 442.5,492C 441.874,491.25 441.374,490.416 441,489.5C 437.667,460.837 434.334,432.17 431,403.5C 427.21,389.378 418.71,379.211 405.5,373C 385.656,367.371 365.656,362.704 345.5,359C 351.167,385.336 356.834,411.669 362.5,438C 361.888,442.743 359.222,445.243 354.5,445.5C 339.819,440.995 325.319,435.995 311,430.5C 310.667,450.167 310.333,469.833 310,489.5C 307.487,493.212 303.987,494.378 299.5,493C 297.951,491.786 296.785,490.286 296,488.5C 295.667,451.833 295.333,415.167 295,378.5C 277.194,395.498 256.694,399.665 233.5,391C 226.831,387.997 220.998,383.831 216,378.5C 215.667,415.167 215.333,451.833 215,488.5C 212.928,493.143 209.428,494.643 204.5,493C 202.667,492.5 201.5,491.333 201,489.5C 200.667,469.833 200.333,450.167 200,430.5C 185.681,435.995 171.181,440.995 156.5,445.5C 151.778,445.243 149.112,442.743 148.5,438C 154.166,411.669 159.833,385.336 165.5,359C 146.387,362.527 127.387,366.86 108.5,372C 93.7713,377.73 84.2713,388.23 80,403.5C 76.6664,432.17 73.333,460.837 70,489.5C 67.487,493.212 63.987,494.378 59.5,493C 56.9816,491.13 55.6482,488.63 55.5,485.5C 58.5161,459.521 61.3495,433.521 64,407.5C 68.0255,382.485 81.8588,365.652 105.5,357C 137.144,349.339 168.811,341.839 200.5,334.5C 202.027,322.541 202.86,310.541 203,298.5C 182.358,281.557 167.358,260.557 158,235.5C 126.285,232.067 113.619,214.734 120,183.5C 122.302,177.365 126.469,173.031 132.5,170.5C 133.333,151.842 133.833,133.176 134,114.5C 134.815,92.8623 143.982,75.8623 161.5,63.5C 150.027,52.2498 144.527,38.5831 145,22.5C 145.997,20.6769 147.164,19.0103 148.5,17.5 Z M 160.5,33.5 C 200.331,32.3354 240.331,32.1688 280.5,33C 333.459,42.6373 360.626,74.4707 362,128.5C 362.833,141.846 362.666,155.179 361.5,168.5C 359.568,169.52 357.568,169.687 355.5,169C 349.634,163.469 344.134,157.635 339,151.5C 336.443,147.055 334.443,142.389 333,137.5C 331.426,126.815 329.759,116.148 328,105.5C 326.68,102.099 324.18,100.765 320.5,101.5C 278.858,110.481 237.191,110.647 195.5,102C 187.837,99.3228 183.337,101.823 182,109.5C 180.823,120.25 179.156,130.916 177,141.5C 172.124,152.386 164.957,161.552 155.5,169C 153.432,169.687 151.432,169.52 149.5,168.5C 148.334,150.509 148.167,132.509 149,114.5C 150.733,93.2005 161.566,78.7005 181.5,71C 184.504,67.8278 185.004,64.3278 183,60.5C 172.308,53.9902 164.808,44.9902 160.5,33.5 Z M 196.5,117.5 C 235.504,125.418 274.504,125.418 313.5,117.5C 314.086,117.709 314.586,118.043 315,118.5C 314.894,135.101 319.561,150.101 329,163.5C 334.667,169.167 340.333,174.833 346,180.5C 346.291,234.772 322.791,274.938 275.5,301C 258.272,308.174 241.939,306.507 226.5,296C 184.624,269.091 164.124,230.591 165,180.5C 173.782,172.724 181.449,164.058 188,154.5C 192.761,142.595 195.594,130.261 196.5,117.5 Z M 139.5,183.5 C 142.777,183.216 145.943,183.549 149,184.5C 149.354,196.002 150.854,207.335 153.5,218.5C 142.29,218.439 135.457,212.772 133,201.5C 131.524,194.009 133.691,188.009 139.5,183.5 Z M 362.5,183.5 C 373.102,182.1 378.435,186.767 378.5,197.5C 377.626,211.042 370.626,218.042 357.5,218.5C 360.071,206.924 361.738,195.257 362.5,183.5 Z M 217.5,309.5 C 223.989,312.573 230.655,315.406 237.5,318C 249.5,321.333 261.5,321.333 273.5,318C 280.345,315.406 287.011,312.573 293.5,309.5C 294.555,322.155 295.055,334.821 295,347.5C 289.815,368.014 276.649,379.014 255.5,380.5C 234.351,379.014 221.185,368.014 216,347.5C 215.985,334.823 216.485,322.157 217.5,309.5 Z M 199.5,349.5 C 200.828,371.004 200.828,392.67 199.5,414.5C 188.611,418.407 177.778,422.407 167,426.5C 171.266,402.173 176.432,378.007 182.5,354C 188.405,352.927 194.072,351.427 199.5,349.5 Z M 310.5,349.5 C 316.386,351.305 322.386,352.805 328.5,354C 334.568,378.007 339.734,402.173 344,426.5C 333.222,422.407 322.389,418.407 311.5,414.5C 310.5,392.844 310.167,371.177 310.5,349.5 Z"/></g>
<g><path style="opacity:0.908" fill="#000000" d="M 212.5,155.5 C 222.721,154.629 231.554,157.629 239,164.5C 241.275,171.06 239.108,174.727 232.5,175.5C 227.369,173.458 222.036,171.791 216.5,170.5C 212.134,171.121 208.134,172.621 204.5,175C 195.612,176.779 192.112,173.279 194,164.5C 199.276,159.444 205.442,156.444 212.5,155.5 Z"/></g>
<g><path style="opacity:0.908" fill="#000000" d="M 291.5,155.5 C 301.227,155.241 309.727,158.241 317,164.5C 319.275,171.06 317.108,174.727 310.5,175.5C 305.369,173.458 300.036,171.791 294.5,170.5C 290.134,171.121 286.134,172.621 282.5,175C 273.667,176.833 270.167,173.333 272,164.5C 277.64,159.461 284.14,156.461 291.5,155.5 Z"/></g>
<g><path style="opacity:0.89" fill="#000000" d="M 212.5,182.5 C 224.362,181.86 228.529,187.193 225,198.5C 218.189,204.25 212.189,203.584 207,196.5C 205.268,190.314 207.101,185.647 212.5,182.5 Z"/></g>
<g><path style="opacity:0.887" fill="#000000" d="M 290.5,182.5 C 300.988,181.487 305.488,186.154 304,196.5C 298.811,203.584 292.811,204.25 286,198.5C 282.994,191.771 284.494,186.438 290.5,182.5 Z"/></g>
<g><path style="opacity:0.911" fill="#000000" d="M 228.5,243.5 C 246.001,251.429 263.501,251.429 281,243.5C 287.915,244.761 290.249,248.761 288,255.5C 280.958,260.294 273.125,263.127 264.5,264C 250.942,265.574 237.942,263.574 225.5,258C 222.606,255.091 221.773,251.591 223,247.5C 224.5,245.531 226.333,244.198 228.5,243.5 Z"/></g>
</svg>
