<?xml version="1.0" encoding="UTF-8"?>
<svg xmlns="http://www.w3.org/2000/svg" version="1.1" width="512px" height="512px" style="shape-rendering:geometricPrecision; text-rendering:geometricPrecision; image-rendering:optimizeQuality; fill-rule:evenodd; clip-rule:evenodd" xmlns:xlink="http://www.w3.org/1999/xlink">
<g><path style="opacity:0.968" fill="#000000" d="M 511.5,120.5 C 511.5,131.5 511.5,142.5 511.5,153.5C 509.002,173.172 503.335,192.005 494.5,210C 500.157,210.499 505.824,210.666 511.5,210.5C 511.5,240.833 511.5,271.167 511.5,301.5C 500.833,301.5 490.167,301.5 479.5,301.5C 475.543,357.71 455.377,407.043 419,449.5C 407.619,461.891 394.786,472.391 380.5,481C 297.167,481.667 213.833,481.667 130.5,481C 96.0293,458.254 70.8627,427.754 55,389.5C 43.2525,361.266 35.7525,331.933 32.5,301.5C 21.5,301.5 10.5,301.5 -0.5,301.5C -0.5,271.167 -0.5,240.833 -0.5,210.5C 30.8351,210.667 62.1684,210.5 93.5,210C 82.8333,193.667 72.1667,177.333 61.5,161C 38.8312,167.21 20.3312,161.044 6,142.5C 3.22592,137.633 1.05926,132.633 -0.5,127.5C -0.5,121.167 -0.5,114.833 -0.5,108.5C 1.28101,101.268 4.44768,94.6008 9,88.5C 25.1667,72.3333 41.3333,56.1667 57.5,40C 77.7505,25.8256 97.7505,26.159 117.5,41C 132.015,56.4737 136.015,74.1404 129.5,94C 177.456,132.288 225.123,170.954 272.5,210C 279.5,210.667 286.5,210.667 293.5,210C 282.961,194.726 276.127,177.892 273,159.5C 271.576,136.535 271.076,113.535 271.5,90.5C 326.02,86.8483 368.853,107.182 400,151.5C 433.369,128.029 470.535,117.696 511.5,120.5 Z M 84.5,60.5 C 94.2242,60.8904 99.8908,65.8904 101.5,75.5C 101.213,78.8655 100.046,81.8655 98,84.5C 94,88.5 90,92.5 86,96.5C 85.3333,97.1667 85.3333,97.8333 86,98.5C 131.833,135.667 177.667,172.833 223.5,210C 192.833,210.667 162.167,210.667 131.5,210C 110.333,178.167 89.1667,146.333 68,114.5C 62.4286,120.742 56.262,126.242 49.5,131C 35.4652,132.966 29.2985,126.799 31,112.5C 45.7712,95.7268 61.2712,79.5602 77.5,64C 79.9252,62.7874 82.2585,61.6207 84.5,60.5 Z M 301.5,122.5 C 332.084,127.867 356.251,143.2 374,168.5C 375.187,170.044 375.52,171.711 375,173.5C 364.752,184.251 356.252,196.251 349.5,209.5C 339.79,212.773 331.957,210.439 326,202.5C 307.954,179.012 299.787,152.346 301.5,122.5 Z M 475.5,152.5 C 476.833,152.5 478.167,152.5 479.5,152.5C 477.177,173.142 470.343,192.142 459,209.5C 434.572,210.661 410.072,210.827 385.5,210C 407.922,178.957 437.922,159.79 475.5,152.5 Z M 29.5,241.5 C 180.167,241.5 330.833,241.5 481.5,241.5C 481.5,251.167 481.5,260.833 481.5,270.5C 330.833,270.5 180.167,270.5 29.5,270.5C 29.5,260.833 29.5,251.167 29.5,241.5 Z M 63.5,302.5 C 191.666,301.5 319.999,301.167 448.5,301.5C 444.613,350.241 426.78,392.908 395,429.5C 387.418,437.086 379.252,443.919 370.5,450C 293.833,450.667 217.167,450.667 140.5,450C 115.704,431.529 97.2044,408.029 85,379.5C 74.4381,354.665 67.2714,328.998 63.5,302.5 Z"/></g>
<g><path style="opacity:0.98" fill="#000000" d="M 240.5,330.5 C 250.5,330.5 260.5,330.5 270.5,330.5C 270.5,340.5 270.5,350.5 270.5,360.5C 280.5,360.5 290.5,360.5 300.5,360.5C 300.5,370.833 300.5,381.167 300.5,391.5C 290.5,391.5 280.5,391.5 270.5,391.5C 270.5,401.5 270.5,411.5 270.5,421.5C 260.5,421.5 250.5,421.5 240.5,421.5C 240.5,411.5 240.5,401.5 240.5,391.5C 230.5,391.5 220.5,391.5 210.5,391.5C 210.5,381.167 210.5,370.833 210.5,360.5C 220.5,360.5 230.5,360.5 240.5,360.5C 240.5,350.5 240.5,340.5 240.5,330.5 Z"/></g>
</svg>
