<?xml version="1.0" encoding="UTF-8"?>
<svg xmlns="http://www.w3.org/2000/svg" version="1.1" width="512px" height="512px" style="shape-rendering:geometricPrecision; text-rendering:geometricPrecision; image-rendering:optimizeQuality; fill-rule:evenodd; clip-rule:evenodd" xmlns:xlink="http://www.w3.org/1999/xlink">
<g><path style="opacity:0.941" fill="#000000" d="M 232.5,-0.5 C 247.833,-0.5 263.167,-0.5 278.5,-0.5C 291.873,1.00957 305.207,3.50957 318.5,7C 329.111,9.71897 338.277,14.8856 346,22.5C 356.416,49.2138 371.249,73.0472 390.5,94C 414.34,90.5024 426.674,100.836 427.5,125C 442.319,133.91 457.986,140.91 474.5,146C 475.701,146.903 476.535,148.069 477,149.5C 473.255,219.404 451.588,283.071 412,340.5C 389.7,370.473 362.7,395.14 331,414.5C 324.915,424.002 321.082,434.335 319.5,445.5C 341.759,447.209 363.426,451.709 384.5,459C 393.542,462.203 399.209,468.37 401.5,477.5C 400.512,483.983 397.179,488.817 391.5,492C 374.779,500.239 357.112,505.239 338.5,507C 323.028,508.663 307.695,510.163 292.5,511.5C 267.833,511.5 243.167,511.5 218.5,511.5C 194.088,510.055 169.754,506.888 145.5,502C 133.262,499.63 122.429,494.463 113,486.5C 111.377,483.673 110.21,480.673 109.5,477.5C 111.832,468.332 117.498,462.166 126.5,459C 147.585,451.75 169.251,447.25 191.5,445.5C 189.915,434.331 186.082,423.997 180,414.5C 133.878,386.047 98.5442,347.713 74,299.5C 50.0438,252.304 36.7105,202.304 34,149.5C 35.2506,146.619 37.4173,144.786 40.5,144C 55.6767,139.578 70.01,133.245 83.5,125C 84.3208,100.842 96.6541,90.5084 120.5,94C 139.751,73.0472 154.584,49.2138 165,22.5C 172.723,14.8856 181.889,9.71897 192.5,7C 205.793,3.50957 219.127,1.00957 232.5,-0.5 Z M 234.5,17.5 C 256.29,16.7008 277.956,17.8675 299.5,21C 308.547,22.4602 317.213,25.1269 325.5,29C 327.909,30.2007 329.909,31.8674 331.5,34C 324.909,38.868 317.576,42.2014 309.5,44C 269.901,53.0885 230.568,52.0885 191.5,41C 187.172,39.1713 183.172,36.838 179.5,34C 181.091,31.8674 183.091,30.2007 185.5,29C 201.369,22.6635 217.702,18.8302 234.5,17.5 Z M 171.5,51.5 C 189.74,60.3949 209.073,65.5615 229.5,67C 262.111,70.3377 294.111,67.3377 325.5,58C 330.088,56.3065 334.421,54.1398 338.5,51.5C 348.871,71.5824 361.704,89.9157 377,106.5C 375.879,110.335 375.045,114.335 374.5,118.5C 355.604,118.033 344.104,127.033 340,145.5C 325.298,142.178 313.298,146.512 304,158.5C 301.908,163.021 299.575,167.354 297,171.5C 280.734,167.313 266.901,171.313 255.5,183.5C 243.517,171.283 229.183,166.949 212.5,170.5C 205.639,150.489 191.805,142.156 171,145.5C 166.896,127.033 155.396,118.033 136.5,118.5C 135.955,114.335 135.121,110.335 134,106.5C 149.483,90.1865 161.983,71.8532 171.5,51.5 Z M 106.5,111.5 C 117.481,111.037 120.481,115.537 115.5,125C 107.048,128.202 102.881,125.368 103,116.5C 103.997,114.677 105.164,113.01 106.5,111.5 Z M 397.5,111.5 C 403.755,110.261 407.422,112.761 408.5,119C 407.933,123.734 405.266,126.234 400.5,126.5C 393.545,125.153 391.379,121.153 394,114.5C 395.145,113.364 396.312,112.364 397.5,111.5 Z M 137.5,136.5 C 146.305,136.141 151.305,140.307 152.5,149C 149.65,160.704 142.983,163.704 132.5,158C 125.971,148.932 127.637,141.766 137.5,136.5 Z M 367.5,136.5 C 381.041,137.513 385.208,144.179 380,156.5C 374.231,162.409 368.231,162.742 362,157.5C 356.173,148.489 358.006,141.489 367.5,136.5 Z M 93.5,139.5 C 98.584,142.584 104.084,144.584 110,145.5C 109.977,165.658 120.144,176.991 140.5,179.5C 141.554,179.32 142.554,178.987 143.5,178.5C 147.411,203.744 162.078,215.077 187.5,212.5C 190.775,234.169 203.442,245.835 225.5,247.5C 237.572,247.129 247.572,242.463 255.5,233.5C 270.842,249.061 288.176,251.561 307.5,241C 317.288,234.035 322.622,224.535 323.5,212.5C 348.922,215.077 363.589,203.744 367.5,178.5C 383.911,179.536 394.745,172.203 400,156.5C 400.632,152.43 401.132,148.596 401.5,145C 407.064,144.646 412.064,142.813 416.5,139.5C 429.983,148.218 444.316,155.218 459.5,160.5C 452.322,227.145 428.822,287.145 389,340.5C 359.726,376.425 323.226,402.258 279.5,418C 263.5,424 247.5,424 231.5,418C 172.954,395.829 128.121,357.662 97,303.5C 72.5061,258.85 57.3395,211.183 51.5,160.5C 59.1365,157.351 66.8032,154.185 74.5,151C 81.2296,147.643 87.5629,143.81 93.5,139.5 Z M 173.5,162.5 C 187.514,161.386 194.681,167.72 195,181.5C 190.651,193.592 182.484,197.425 170.5,193C 162.185,186.759 160.352,178.926 165,169.5C 167.441,166.546 170.275,164.213 173.5,162.5 Z M 327.5,162.5 C 342.314,161.813 349.147,168.813 348,183.5C 342.429,195.019 333.929,197.853 322.5,192C 314.08,184.248 313.413,175.915 320.5,167C 322.898,165.476 325.231,163.976 327.5,162.5 Z M 223.5,187.5 C 237.224,187.892 244.891,194.892 246.5,208.5C 243.848,224.656 234.515,231.156 218.5,228C 206.45,221.854 202.616,212.354 207,199.5C 210.736,192.911 216.236,188.911 223.5,187.5 Z M 282.5,187.5 C 296.193,188.011 304.193,195.011 306.5,208.5C 305.048,221.084 298.048,228.084 285.5,229.5C 269.344,226.848 262.844,217.515 266,201.5C 269.283,194.124 274.783,189.457 282.5,187.5 Z M 319.5,464.5 C 334.353,465.357 349.02,467.523 363.5,471C 369.148,472.491 374.481,474.658 379.5,477.5C 372.632,481.221 365.298,483.721 357.5,485C 323.819,491.56 289.819,494.393 255.5,493.5C 221.181,494.393 187.181,491.56 153.5,485C 145.702,483.721 138.368,481.221 131.5,477.5C 136.519,474.658 141.852,472.491 147.5,471C 162.417,467.596 177.417,465.263 192.5,464C 191.431,468.446 190.431,472.946 189.5,477.5C 191.561,486.03 196.561,488.363 204.5,484.5C 206.873,481.218 208.373,477.552 209,473.5C 211.354,457.959 210.687,442.625 207,427.5C 229.955,440.14 254.121,443.307 279.5,437C 287.96,434.517 296.126,431.351 304,427.5C 301.869,436.637 300.703,445.97 300.5,455.5C 300.314,464.032 301.481,472.365 304,480.5C 308.482,487.579 313.816,488.246 320,482.5C 320.923,480.966 321.423,479.299 321.5,477.5C 320.349,473.234 319.683,468.9 319.5,464.5 Z"/></g>
</svg>
