<?xml version="1.0" encoding="UTF-8"?>
<svg xmlns="http://www.w3.org/2000/svg" version="1.1" width="512px" height="512px" style="shape-rendering:geometricPrecision; text-rendering:geometricPrecision; image-rendering:optimizeQuality; fill-rule:evenodd; clip-rule:evenodd" xmlns:xlink="http://www.w3.org/1999/xlink">
<g><path style="opacity:0.968" fill="#000000" d="M 511.5,309.5 C 511.5,317.5 511.5,325.5 511.5,333.5C 504.093,367.077 483.76,388.577 450.5,398C 385.526,399.154 320.526,399.654 255.5,399.5C 190.474,399.654 125.474,399.154 60.5,398C 27.2402,388.577 6.90687,367.077 -0.5,333.5C -0.5,286.5 -0.5,239.5 -0.5,192.5C 10.5116,162.659 31.5116,151.826 62.5,160C 72.1688,164.002 79.6688,170.502 85,179.5C 94.8268,207.495 113.993,217.662 142.5,210C 154.684,204.154 162.518,194.654 166,181.5C 166.083,170.072 167.083,158.738 169,147.5C 178.726,121.378 197.559,109.544 225.5,112C 233.956,113.594 241.623,116.927 248.5,122C 287.167,154.333 325.833,186.667 364.5,219C 388.399,237.962 415.732,246.295 446.5,244C 482.467,251.8 504.134,273.634 511.5,309.5 Z M 212.5,142.5 C 218.233,141.895 223.566,143.062 228.5,146C 238.02,154.354 247.687,162.521 257.5,170.5C 246.947,181.552 236.281,192.385 225.5,203C 231.789,210.291 238.456,217.291 245.5,224C 246.5,224.667 247.5,224.667 248.5,224C 259.667,212.833 270.833,201.667 282,190.5C 285.981,193.647 289.814,196.98 293.5,200.5C 283.348,211.153 273.014,221.653 262.5,232C 269.5,239 276.5,246 283.5,253C 284.167,253.667 284.833,253.667 285.5,253C 296.333,242.167 307.167,231.333 318,220.5C 321.981,223.647 325.814,226.98 329.5,230.5C 319.833,240.5 310.167,250.5 300.5,260.5C 307.485,267.986 314.652,275.319 322,282.5C 332.681,271.652 343.514,260.986 354.5,250.5C 378.418,267.302 405.085,275.135 434.5,274C 458.889,276.552 474.222,289.719 480.5,313.5C 330.168,314.5 179.835,314.833 29.5,314.5C 29.3333,277.165 29.5,239.832 30,202.5C 33.2617,188.299 41.4283,184.466 54.5,191C 59.957,200.751 65.7904,210.251 72,219.5C 98.4283,245.994 128.595,251.161 162.5,235C 179.776,224.382 190.943,209.216 196,189.5C 197.029,178.174 198.029,166.84 199,155.5C 201.442,148.888 205.942,144.555 212.5,142.5 Z M 37.5,345.5 C 182.835,345.167 328.168,345.5 473.5,346.5C 465.95,358.202 455.283,365.369 441.5,368C 317.5,368.667 193.5,368.667 69.5,368C 55.3051,365.275 44.6385,357.775 37.5,345.5 Z"/></g>
</svg>
