<?xml version="1.0" encoding="UTF-8"?>
<svg xmlns="http://www.w3.org/2000/svg" version="1.1" width="512px" height="512px" style="shape-rendering:geometricPrecision; text-rendering:geometricPrecision; image-rendering:optimizeQuality; fill-rule:evenodd; clip-rule:evenodd" xmlns:xlink="http://www.w3.org/1999/xlink">
<g><path style="opacity:0.949" fill="#000000" d="M 133.5,-0.5 C 214.833,-0.5 296.167,-0.5 377.5,-0.5C 391.808,4.31974 399.641,14.3197 401,29.5C 401.667,180.167 401.667,330.833 401,481.5C 399.641,496.68 391.808,506.68 377.5,511.5C 296.167,511.5 214.833,511.5 133.5,511.5C 119.192,506.68 111.359,496.68 110,481.5C 109.333,330.833 109.333,180.167 110,29.5C 111.359,14.3197 119.192,4.31974 133.5,-0.5 Z M 136.5,17.5 C 215.834,17.3333 295.167,17.5 374.5,18C 377.667,19.8333 380.167,22.3333 382,25.5C 383.33,33.7733 383.83,42.1067 383.5,50.5C 298.167,50.5 212.833,50.5 127.5,50.5C 127.17,42.1067 127.67,33.7733 129,25.5C 131.028,22.3078 133.528,19.6411 136.5,17.5 Z M 127.5,68.5 C 212.833,68.5 298.167,68.5 383.5,68.5C 383.5,181.833 383.5,295.167 383.5,408.5C 298.167,408.5 212.833,408.5 127.5,408.5C 127.5,295.167 127.5,181.833 127.5,68.5 Z M 127.5,426.5 C 212.833,426.5 298.167,426.5 383.5,426.5C 383.667,444.503 383.5,462.503 383,480.5C 382.786,485.427 380.619,489.261 376.5,492C 336.249,493.161 295.916,493.661 255.5,493.5C 215.084,493.661 174.751,493.161 134.5,492C 130.381,489.261 128.214,485.427 128,480.5C 127.5,462.503 127.333,444.503 127.5,426.5 Z M 242.5,452.5 C 251.173,452.334 259.84,452.5 268.5,453C 274.054,458.433 273.721,463.433 267.5,468C 259.5,468.667 251.5,468.667 243.5,468C 237.198,463.27 236.865,458.103 242.5,452.5 Z"/></g>
<g><path style="opacity:0.938" fill="#000000" d="M 210.5,24.5 C 240.502,24.3334 270.502,24.5 300.5,25C 306.443,27.8296 308.276,32.3296 306,38.5C 304.786,40.0488 303.286,41.2155 301.5,42C 270.833,42.6667 240.167,42.6667 209.5,42C 203.698,38.2914 202.531,33.4581 206,27.5C 207.652,26.6006 209.152,25.6006 210.5,24.5 Z"/></g>
<g><path style="opacity:0.901" fill="#000000" d="M 347.5,24.5 C 353.028,23.9999 358.362,24.6666 363.5,26.5C 366.866,30.4285 367.366,34.7619 365,39.5C 364.097,40.7014 362.931,41.5348 361.5,42C 356.167,42.6667 350.833,42.6667 345.5,42C 340.932,39.4126 339.432,35.5792 341,30.5C 342.436,27.5581 344.603,25.5581 347.5,24.5 Z"/></g>
<g><path style="opacity:0.939" fill="#000000" d="M 238.5,434.5 C 249.838,434.333 261.172,434.5 272.5,435C 287.729,441.63 293.229,453.13 289,469.5C 285.985,478.514 279.818,484.014 270.5,486C 260.5,486.667 250.5,486.667 240.5,486C 225.644,481.808 219.144,471.974 221,456.5C 222.656,445.693 228.49,438.36 238.5,434.5 Z M 242.5,452.5 C 236.865,458.103 237.198,463.27 243.5,468C 251.5,468.667 259.5,468.667 267.5,468C 273.721,463.433 274.054,458.433 268.5,453C 259.84,452.5 251.173,452.334 242.5,452.5 Z"/></g>
</svg>
