<?xml version="1.0" encoding="UTF-8"?>
<svg xmlns="http://www.w3.org/2000/svg" version="1.1" width="512px" height="512px" style="shape-rendering:geometricPrecision; text-rendering:geometricPrecision; image-rendering:optimizeQuality; fill-rule:evenodd; clip-rule:evenodd" xmlns:xlink="http://www.w3.org/1999/xlink">
<g><path style="opacity:0.951" fill="#000000" d="M 195.5,15.5 C 235.501,15.3333 275.501,15.5 315.5,16C 316.416,16.3742 317.25,16.8742 318,17.5C 321.215,24.7729 325.049,31.6062 329.5,38C 358.833,46.3333 388.167,54.6667 417.5,63C 420.057,63.6853 421.891,65.1853 423,67.5C 429.073,89.5288 433.739,111.862 437,134.5C 451.076,237.023 457.076,340.023 455,443.5C 454.5,445.333 453.333,446.5 451.5,447C 434.17,447.5 416.837,447.667 399.5,447.5C 399.666,451.514 399.499,455.514 399,459.5C 385.351,472.086 369.518,481.253 351.5,487C 323.287,496.09 294.62,498.423 265.5,494C 261.875,485.626 258.541,477.126 255.5,468.5C 252.434,476.863 249.268,485.196 246,493.5C 199.967,500.959 157.467,491.793 118.5,466C 116.151,463.93 113.984,461.763 112,459.5C 111.501,455.514 111.334,451.514 111.5,447.5C 94.1635,447.667 76.8301,447.5 59.5,447C 57.6667,446.5 56.5,445.333 56,443.5C 54.4102,355.245 58.4102,267.245 68,179.5C 71.8398,143.794 77.8398,108.461 86,73.5C 86.7804,70.4883 87.9471,67.6549 89.5,65C 120.065,55.6917 150.731,46.6917 181.5,38C 185.951,31.6062 189.785,24.7729 193,17.5C 193.995,16.9341 194.828,16.2674 195.5,15.5 Z M 210.5,32.5 C 240.331,31.3361 270.331,31.1695 300.5,32C 298.833,37 297.167,42 295.5,47C 268.833,47.6667 242.167,47.6667 215.5,47C 213.896,42.0512 212.229,37.2179 210.5,32.5 Z M 196.5,47.5 C 213.605,105.57 230.272,163.903 246.5,222.5C 246.167,223.167 245.833,223.833 245.5,224.5C 226,195.5 206.5,166.5 187,137.5C 186.333,136.167 186.333,134.833 187,133.5C 191,127.5 195,121.5 199,115.5C 199.817,112.036 199.483,108.702 198,105.5C 189.8,102.158 181.3,99.8245 172.5,98.5C 180.221,81.3901 188.221,64.3901 196.5,47.5 Z M 263.5,227.5 C 279.823,167.363 296.657,107.363 314,47.5C 322.729,64.2891 330.896,81.2891 338.5,98.5C 329.7,99.8245 321.2,102.158 313,105.5C 311.517,108.702 311.183,112.036 312,115.5C 316,121.5 320,127.5 324,133.5C 324.667,134.833 324.667,136.167 324,137.5C 303.97,167.677 283.804,197.677 263.5,227.5 Z M 170.5,58.5 C 171.239,58.369 171.906,58.5357 172.5,59C 165.539,72.4222 158.706,85.9222 152,99.5C 151.333,102.167 151.333,104.833 152,107.5C 152.5,109.333 153.667,110.5 155.5,111C 162.833,113 170.167,115 177.5,117C 174.209,121.748 171.042,126.581 168,131.5C 167.333,134.167 167.333,136.833 168,139.5C 192.212,175.426 216.045,211.593 239.5,248C 237,256.833 234.5,265.667 232,274.5C 231.333,317.5 231.333,360.5 232,403.5C 236.557,415.613 241.39,427.613 246.5,439.5C 241.759,452.722 237.426,466.056 233.5,479.5C 196.668,481.626 162.668,473.126 131.5,454C 129.876,452.883 128.876,451.383 128.5,449.5C 130.866,432.874 132.866,416.207 134.5,399.5C 154.836,399.667 175.169,399.5 195.5,399C 197.333,398.5 198.5,397.333 199,395.5C 199.667,382.167 199.667,368.833 199,355.5C 198.626,354.584 198.126,353.75 197.5,353C 178.593,351.525 159.593,351.025 140.5,351.5C 144.081,322.52 147.581,293.52 151,264.5C 151.667,259.833 151.667,255.167 151,250.5C 136.268,193.472 121.435,136.472 106.5,79.5C 106.608,78.5581 106.941,77.7247 107.5,77C 128.754,71.2748 149.754,65.1081 170.5,58.5 Z M 338.5,59.5 C 360.075,64.4827 381.741,70.3161 403.5,77C 404.059,77.7247 404.392,78.5581 404.5,79.5C 389.565,136.472 374.732,193.472 360,250.5C 359.333,255.167 359.333,259.833 360,264.5C 363.419,293.52 366.919,322.52 370.5,351.5C 351.407,351.025 332.407,351.525 313.5,353C 312.874,353.75 312.374,354.584 312,355.5C 311.333,368.833 311.333,382.167 312,395.5C 312.5,397.333 313.667,398.5 315.5,399C 335.831,399.5 356.164,399.667 376.5,399.5C 378.134,416.207 380.134,432.874 382.5,449.5C 382.124,451.383 381.124,452.883 379.5,454C 348.332,473.126 314.332,481.626 277.5,479.5C 269.549,451.478 259.715,424.145 248,397.5C 247.333,359.167 247.333,320.833 248,282.5C 264.376,257.581 280.876,232.747 297.5,208C 316.833,207.667 336.167,207.333 355.5,207C 357.333,206.5 358.5,205.333 359,203.5C 359.667,200.833 359.667,198.167 359,195.5C 358.5,193.667 357.333,192.5 355.5,192C 339.833,191.667 324.167,191.333 308.5,191C 320.372,174.092 331.872,156.925 343,139.5C 343.667,136.833 343.667,134.167 343,131.5C 339.958,126.581 336.791,121.748 333.5,117C 340.833,115 348.167,113 355.5,111C 357.333,110.5 358.5,109.333 359,107.5C 359.667,104.833 359.667,102.167 359,99.5C 352.392,85.9492 345.559,72.6158 338.5,59.5 Z M 219.5,64.5 C 243.33,63.3368 267.33,63.1702 291.5,64C 279.608,105.846 267.608,147.68 255.5,189.5C 243.461,147.732 231.461,106.065 219.5,64.5 Z M 95.5,108.5 C 109.414,158.152 122.414,208.152 134.5,258.5C 127.749,315.51 120.915,372.51 114,429.5C 100.412,431.472 86.5791,432.138 72.5,431.5C 71.1002,323.161 78.7669,215.495 95.5,108.5 Z M 414.5,108.5 C 423.022,153.004 428.855,198.004 432,243.5C 436.755,306.077 438.922,368.744 438.5,431.5C 424.421,432.138 410.588,431.472 397,429.5C 390.085,372.51 383.251,315.51 376.5,258.5C 388.853,208.422 401.519,158.422 414.5,108.5 Z M 138.5,367.5 C 153.5,367.5 168.5,367.5 183.5,367.5C 183.5,372.833 183.5,378.167 183.5,383.5C 167.819,383.833 152.152,383.499 136.5,382.5C 137.458,377.55 138.124,372.55 138.5,367.5 Z M 327.5,367.5 C 342.5,367.5 357.5,367.5 372.5,367.5C 372.876,372.55 373.542,377.55 374.5,382.5C 358.848,383.499 343.181,383.833 327.5,383.5C 327.5,378.167 327.5,372.833 327.5,367.5 Z"/></g>
<g><path style="opacity:0.884" fill="#000000" d="M 267.5,303.5 C 276.657,302.489 280.49,306.489 279,315.5C 274.357,320.453 269.357,320.787 264,316.5C 261.635,311.11 262.801,306.776 267.5,303.5 Z"/></g>
<g><path style="opacity:0.892" fill="#000000" d="M 267.5,367.5 C 278.86,366.71 282.193,371.543 277.5,382C 266.964,385.997 262.464,382.497 264,371.5C 264.69,369.65 265.856,368.316 267.5,367.5 Z"/></g>
</svg>
