<?xml version="1.0" encoding="UTF-8"?>
<svg xmlns="http://www.w3.org/2000/svg" version="1.1" width="512px" height="512px" style="shape-rendering:geometricPrecision; text-rendering:geometricPrecision; image-rendering:optimizeQuality; fill-rule:evenodd; clip-rule:evenodd" xmlns:xlink="http://www.w3.org/1999/xlink">
<g><path style="opacity:0.936" fill="#000000" d="M 152.5,-0.5 C 160.5,-0.5 168.5,-0.5 176.5,-0.5C 197.386,4.11446 213.053,15.7811 223.5,34.5C 224.5,34.8333 225.5,35.1667 226.5,35.5C 245.833,31.5 265.167,31.5 284.5,35.5C 285.5,35.1667 286.5,34.8333 287.5,34.5C 297.947,15.7811 313.614,4.11446 334.5,-0.5C 342.167,-0.5 349.833,-0.5 357.5,-0.5C 387.486,5.98687 405.653,24.3202 412,54.5C 415.561,86.5479 403.394,110.381 375.5,126C 385.707,169.003 376.374,207.17 347.5,240.5C 369.141,256.307 390.641,272.307 412,288.5C 433.692,315.189 435.025,342.856 416,371.5C 413.317,374.016 410.817,376.683 408.5,379.5C 432.465,410.879 435.965,444.545 419,480.5C 410.186,495.97 397.353,506.304 380.5,511.5C 374.167,511.5 367.833,511.5 361.5,511.5C 345.768,506.948 333.601,497.615 325,483.5C 322.56,478.282 319.893,473.282 317,468.5C 276,493.833 235,493.833 194,468.5C 191.107,473.282 188.44,478.282 186,483.5C 177.399,497.615 165.232,506.948 149.5,511.5C 143.167,511.5 136.833,511.5 130.5,511.5C 106.311,503.803 91.1447,487.47 85,462.5C 76.7752,431.748 82.6085,404.082 102.5,379.5C 80.0437,356.146 75.877,329.813 90,300.5C 92.422,296.656 95.0887,292.99 98,289.5C 119.692,272.974 141.525,256.641 163.5,240.5C 134.626,207.17 125.293,169.003 135.5,126C 101.223,105.181 90.7234,75.6807 104,37.5C 114.189,17.1385 130.355,4.47187 152.5,-0.5 Z M 158.5,16.5 C 179.407,15.452 195.407,23.6187 206.5,41C 205.788,42.442 204.621,43.2753 203,43.5C 185.132,29.6561 166.632,28.4894 147.5,40C 132.019,53.4183 127.519,69.9183 134,89.5C 136.714,94.4316 139.547,99.265 142.5,104C 142.275,105.621 141.442,106.788 140,107.5C 120.629,95.0765 112.962,77.4099 117,54.5C 123.411,33.5833 137.245,20.9167 158.5,16.5 Z M 339.5,16.5 C 365.205,15.5951 383.038,26.9284 393,50.5C 399.019,74.1177 392.186,92.951 372.5,107C 370.155,107.544 368.821,106.544 368.5,104C 372.563,98.7103 375.73,92.877 378,86.5C 383.462,54.7497 370.295,36.4163 338.5,31.5C 327.053,32.3093 316.886,36.3093 308,43.5C 306.379,43.2753 305.212,42.442 304.5,41C 309.989,31.2368 317.989,24.2368 328.5,20C 332.254,18.6912 335.921,17.5246 339.5,16.5 Z M 168.5,49.5 C 174.348,48.962 179.681,50.2953 184.5,53.5C 179.045,57.7826 173.712,62.2826 168.5,67C 162.951,73.0443 157.617,79.211 152.5,85.5C 145.261,67.9735 150.595,55.9735 168.5,49.5 Z M 246.5,49.5 C 295.156,48.5676 330.656,69.5676 353,112.5C 371.935,163.596 360.769,206.763 319.5,242C 274.803,271.426 230.803,270.426 187.5,239C 150.96,205.343 140.46,164.843 156,117.5C 173.581,77.971 203.748,55.3044 246.5,49.5 Z M 334.5,49.5 C 355.235,50.3963 364.068,61.0629 361,81.5C 360.417,83.0016 359.584,84.3349 358.5,85.5C 353.716,79.5446 348.716,73.7112 343.5,68C 338.291,63.1218 332.791,58.6218 327,54.5C 326.312,53.6683 326.479,53.0016 327.5,52.5C 329.885,51.3385 332.219,50.3385 334.5,49.5 Z M 246.5,132.5 C 267.119,130.087 283.619,137.087 296,153.5C 309.822,178.394 306.322,200.56 285.5,220C 260.371,235.909 237.538,233.076 217,211.5C 203.855,192.607 203.188,173.274 215,153.5C 223.144,142.853 233.644,135.853 246.5,132.5 Z M 249.5,165.5 C 257.737,164.097 264.904,166.097 271,171.5C 271.667,172.5 271.667,173.5 271,174.5C 262.118,181.477 252.618,182.31 242.5,177C 238.473,173.689 238.807,170.689 243.5,168C 245.723,167.434 247.723,166.6 249.5,165.5 Z M 175.5,253.5 C 178.806,254.001 180.973,255.667 182,258.5C 151.239,286.692 134.405,321.692 131.5,363.5C 126.291,364.07 121.458,365.736 117,368.5C 97.1999,349.931 94.1999,328.931 108,305.5C 110.833,302.667 113.667,299.833 116.5,297C 136.349,282.637 156.016,268.137 175.5,253.5 Z M 332.5,253.5 C 334.783,253.608 336.783,254.441 338.5,256C 356.886,270.053 375.553,283.72 394.5,297C 412.676,313.269 416.509,332.436 406,354.5C 402.749,359.755 398.749,364.422 394,368.5C 389.542,365.736 384.709,364.07 379.5,363.5C 376.595,321.692 359.761,286.692 329,258.5C 329.749,256.775 330.915,255.108 332.5,253.5 Z M 197.5,267.5 C 235.667,284.798 273.834,284.798 312,267.5C 339.181,289.849 355.515,318.516 361,353.5C 361.824,356.882 361.657,360.216 360.5,363.5C 340.326,370.173 326.492,383.506 319,403.5C 313.775,418.094 311.775,433.094 313,448.5C 285.29,470.368 254.79,475.201 221.5,463C 212.746,459.545 204.912,454.712 198,448.5C 200.411,424.138 194.411,402.138 180,382.5C 172.18,373.009 162.347,366.675 150.5,363.5C 150.851,335.281 160.018,310.281 178,288.5C 184.338,281.329 190.838,274.329 197.5,267.5 Z M 207.5,363.5 C 239.5,363.5 271.5,363.5 303.5,363.5C 302.243,385.524 292.577,402.691 274.5,415C 253.91,424.255 236.41,420.089 222,402.5C 213.32,390.965 208.487,377.965 207.5,363.5 Z M 138.5,379.5 C 152.135,380.635 162.635,386.969 170,398.5C 182.368,421.195 183.701,444.528 174,468.5C 169.586,477.242 163.42,484.409 155.5,490C 137.373,497.85 122.54,493.683 111,477.5C 98.0268,455.188 96.0268,431.855 105,407.5C 111.582,392.397 122.749,383.064 138.5,379.5 Z M 369.5,379.5 C 386.943,381.757 399.11,391.09 406,407.5C 414.973,431.855 412.973,455.188 400,477.5C 381.313,499.728 362.313,500.062 343,478.5C 329.967,458.316 326.967,436.649 334,413.5C 339.632,395.362 351.465,384.028 369.5,379.5 Z"/></g>
<g><path style="opacity:0.928" fill="#000000" d="M 210.5,81.5 C 221.287,80.4636 228.121,85.1302 231,95.5C 232.164,104.992 228.331,111.492 219.5,115C 200.396,115.553 193.896,106.72 200,88.5C 202.998,85.2623 206.498,82.9289 210.5,81.5 Z"/></g>
<g><path style="opacity:0.927" fill="#000000" d="M 292.5,81.5 C 311.086,82.0069 317.252,91.0069 311,108.5C 302.895,116.76 294.061,117.594 284.5,111C 276.341,98.1312 279.008,88.2979 292.5,81.5 Z"/></g>
<g><path style="opacity:0.934" fill="#000000" d="M 248.5,114.5 C 281.29,113.47 304.457,127.803 318,157.5C 328.139,193.693 317.305,221.527 285.5,241C 251.368,254.51 222.868,247.01 200,218.5C 184.502,192.975 184.836,167.642 201,142.5C 213.043,126.601 228.876,117.268 248.5,114.5 Z M 246.5,132.5 C 233.644,135.853 223.144,142.853 215,153.5C 203.188,173.274 203.855,192.607 217,211.5C 237.538,233.076 260.371,235.909 285.5,220C 306.322,200.56 309.822,178.394 296,153.5C 283.619,137.087 267.119,130.087 246.5,132.5 Z M 249.5,165.5 C 247.723,166.6 245.723,167.434 243.5,168C 238.807,170.689 238.473,173.689 242.5,177C 252.618,182.31 262.118,181.477 271,174.5C 271.667,173.5 271.667,172.5 271,171.5C 264.904,166.097 257.737,164.097 249.5,165.5 Z"/></g>
<g><path style="opacity:0.936" fill="#000000" d="M 250.5,147.5 C 265.831,145.921 277.998,151.255 287,163.5C 291.41,181.137 284.577,192.304 266.5,197C 250.727,200.85 237.227,197.016 226,185.5C 218.226,168.862 223.059,157.029 240.5,150C 243.991,149.262 247.325,148.429 250.5,147.5 Z M 249.5,165.5 C 247.723,166.6 245.723,167.434 243.5,168C 238.807,170.689 238.473,173.689 242.5,177C 252.618,182.31 262.118,181.477 271,174.5C 271.667,173.5 271.667,172.5 271,171.5C 264.904,166.097 257.737,164.097 249.5,165.5 Z"/></g>
<g><path style="opacity:0.928" fill="#000000" d="M 196.5,345.5 C 236.894,345.017 277.228,345.517 317.5,347C 320.547,348.925 322.214,351.758 322.5,355.5C 321.916,377.42 315.083,397.087 302,414.5C 277.409,441.114 249.909,444.614 219.5,425C 196.712,404.289 187.212,378.789 191,348.5C 192.876,347.391 194.709,346.391 196.5,345.5 Z M 207.5,363.5 C 208.487,377.965 213.32,390.965 222,402.5C 236.41,420.089 253.91,424.255 274.5,415C 292.577,402.691 302.243,385.524 303.5,363.5C 271.5,363.5 239.5,363.5 207.5,363.5 Z"/></g>
</svg>
