<?xml version="1.0" encoding="UTF-8"?>
<svg xmlns="http://www.w3.org/2000/svg" version="1.1" width="512px" height="512px" style="shape-rendering:geometricPrecision; text-rendering:geometricPrecision; image-rendering:optimizeQuality; fill-rule:evenodd; clip-rule:evenodd" xmlns:xlink="http://www.w3.org/1999/xlink">
<g><path style="opacity:0.935" fill="#000000" d="M 239.5,-0.5 C 249.833,-0.5 260.167,-0.5 270.5,-0.5C 332.759,9.73462 374.259,44.7346 395,104.5C 397.419,112.683 399.086,121.016 400,129.5C 401.379,168.485 401.879,207.485 401.5,246.5C 422.273,248.94 433.606,260.607 435.5,281.5C 435.071,288.734 432.738,295.234 428.5,301C 454.237,310.941 467.904,329.775 469.5,357.5C 469.251,373.262 463.918,386.929 453.5,398.5C 449.141,394.472 444.807,390.472 440.5,386.5C 453.229,369.91 454.396,352.577 444,334.5C 435.916,323.54 425.083,317.374 411.5,316C 393.503,315.5 375.503,315.333 357.5,315.5C 357.5,309.5 357.5,303.5 357.5,297.5C 373.17,297.667 388.837,297.5 404.5,297C 416.59,291.675 419.757,283.175 414,271.5C 411.407,268.457 408.24,266.29 404.5,265C 399.5,264.667 394.5,264.333 389.5,264C 385.296,262.772 383.13,259.939 383,255.5C 382.667,214.167 382.333,172.833 382,131.5C 373.517,77.6903 343.684,41.5236 292.5,23C 238.945,9.07881 193.779,22.5788 157,63.5C 138.234,87.1225 128.568,114.123 128,144.5C 127.667,182.833 127.333,221.167 127,259.5C 125.891,261.815 124.057,263.315 121.5,264C 115.419,264.138 109.419,264.804 103.5,266C 91.3059,274.902 90.6393,284.568 101.5,295C 103.087,295.862 104.754,296.529 106.5,297C 122.163,297.5 137.83,297.667 153.5,297.5C 153.5,303.5 153.5,309.5 153.5,315.5C 135.497,315.333 117.497,315.5 99.5,316C 75.2735,319.561 61.9401,333.561 59.5,358C 62.1961,383.363 76.1961,397.363 101.5,400C 118.83,400.5 136.163,400.667 153.5,400.5C 153.5,406.5 153.5,412.5 153.5,418.5C 132.472,418.874 111.472,418.374 90.5,417C 60.1719,408.827 43.8386,388.994 41.5,357.5C 43.0963,329.775 56.763,310.941 82.5,301C 73.9427,288.52 73.4427,275.687 81,262.5C 87.9003,252.631 97.4003,247.298 109.5,246.5C 109.082,206.814 109.582,167.147 111,127.5C 119.755,70.0839 150.922,30.2506 204.5,8C 216.039,4.0644 227.706,1.23107 239.5,-0.5 Z M 289.5,102.5 C 293.286,114.292 296.786,126.292 300,138.5C 306.299,158.301 319.799,168.968 340.5,170.5C 340.888,189.2 340.388,207.867 339,226.5C 331.886,260.277 312.053,282.777 279.5,294C 233.893,303.775 200.06,288.275 178,247.5C 175.193,241.079 173.193,234.412 172,227.5C 170.609,208.534 170.109,189.534 170.5,170.5C 193.502,170.667 216.502,170.5 239.5,170C 256.206,166.564 268.706,157.397 277,142.5C 281.481,129.237 285.648,115.903 289.5,102.5 Z M 212.5,202.5 C 215.125,203.466 215.125,204.466 212.5,205.5C 211.438,204.575 211.438,203.575 212.5,202.5 Z M 297.5,202.5 C 299.332,203.14 299.665,204.14 298.5,205.5C 296.481,204.867 296.147,203.867 297.5,202.5 Z M 221.5,310.5 C 244.173,317.166 266.84,317.166 289.5,310.5C 289.667,325.17 289.5,339.837 289,354.5C 277.986,365.681 266.819,376.681 255.5,387.5C 244.181,376.681 233.014,365.681 222,354.5C 221.5,339.837 221.333,325.17 221.5,310.5 Z"/></g>
<g><path style="opacity:0.943" fill="#000000" d="M 430.5,511.5 C 313.833,511.5 197.167,511.5 80.5,511.5C 78.4042,509.567 76.9042,507.233 76,504.5C 75.5005,498.175 75.3338,491.842 75.5,485.5C 81.5,485.5 87.5,485.5 93.5,485.5C 93.5,488.167 93.5,490.833 93.5,493.5C 201.5,493.5 309.5,493.5 417.5,493.5C 417.937,462.471 417.437,431.471 416,400.5C 410.094,380.269 396.594,369.102 375.5,367C 351.167,366.333 326.833,366.333 302.5,367C 289.167,380.333 275.833,393.667 262.5,407C 257.833,410.333 253.167,410.333 248.5,407C 234.667,393.167 220.833,379.333 207,365.5C 205.561,363.725 204.561,361.725 204,359.5C 203.667,340.167 203.333,320.833 203,301.5C 173.088,282.36 156.422,255.027 153,219.5C 152.5,203.17 152.333,186.837 152.5,170.5C 149.833,170.5 147.167,170.5 144.5,170.5C 144.5,164.5 144.5,158.5 144.5,152.5C 175.168,152.667 205.835,152.5 236.5,152C 247.524,149.646 255.691,143.479 261,133.5C 267.869,110.559 274.536,87.5589 281,64.5C 286.667,56.5 292.333,56.5 298,64.5C 304.895,90.4182 312.562,116.085 321,141.5C 324.903,146.868 330.07,150.368 336.5,152C 346.494,152.5 356.494,152.666 366.5,152.5C 366.5,158.5 366.5,164.5 366.5,170.5C 363.833,170.5 361.167,170.5 358.5,170.5C 358.667,186.503 358.5,202.503 358,218.5C 354.959,254.507 338.292,282.174 308,301.5C 307.5,317.163 307.333,332.83 307.5,348.5C 333.861,348.086 360.195,348.586 386.5,350C 407.368,354.874 422.202,367.04 431,386.5C 433.125,392.668 434.459,399.001 435,405.5C 435.667,438.5 435.667,471.5 435,504.5C 434.096,507.233 432.596,509.567 430.5,511.5 Z M 289.5,102.5 C 285.648,115.903 281.481,129.237 277,142.5C 268.706,157.397 256.206,166.564 239.5,170C 216.502,170.5 193.502,170.667 170.5,170.5C 170.109,189.534 170.609,208.534 172,227.5C 173.193,234.412 175.193,241.079 178,247.5C 200.06,288.275 233.893,303.775 279.5,294C 312.053,282.777 331.886,260.277 339,226.5C 340.388,207.867 340.888,189.2 340.5,170.5C 319.799,168.968 306.299,158.301 300,138.5C 296.786,126.292 293.286,114.292 289.5,102.5 Z M 212.5,202.5 C 211.438,203.575 211.438,204.575 212.5,205.5C 215.125,204.466 215.125,203.466 212.5,202.5 Z M 297.5,202.5 C 296.147,203.867 296.481,204.867 298.5,205.5C 299.665,204.14 299.332,203.14 297.5,202.5 Z M 221.5,310.5 C 221.333,325.17 221.5,339.837 222,354.5C 233.014,365.681 244.181,376.681 255.5,387.5C 266.819,376.681 277.986,365.681 289,354.5C 289.5,339.837 289.667,325.17 289.5,310.5C 266.84,317.166 244.173,317.166 221.5,310.5 Z"/></g>
<g><path style="opacity:0.916" fill="#000000" d="M 211.5,188.5 C 221.461,188.961 227.128,194.128 228.5,204C 225.644,218.523 217.311,222.856 203.5,217C 195.203,208.007 195.536,199.34 204.5,191C 206.927,190.098 209.26,189.264 211.5,188.5 Z M 212.5,202.5 C 211.438,203.575 211.438,204.575 212.5,205.5C 215.125,204.466 215.125,203.466 212.5,202.5 Z"/></g>
<g><path style="opacity:0.915" fill="#000000" d="M 296.5,188.5 C 311.64,190.774 316.473,199.107 311,213.5C 303.54,220.625 295.54,221.292 287,215.5C 279.321,202.512 282.488,193.512 296.5,188.5 Z M 297.5,202.5 C 296.147,203.867 296.481,204.867 298.5,205.5C 299.665,204.14 299.332,203.14 297.5,202.5 Z"/></g>
<g><path style="opacity:0.905" fill="#000000" d="M 222.5,247.5 C 226.97,246.514 231.637,246.181 236.5,246.5C 237.83,257.83 244.164,264.164 255.5,265.5C 266.361,264.307 272.694,258.307 274.5,247.5C 278.783,246.508 283.116,246.174 287.5,246.5C 286.34,266.661 275.673,277.661 255.5,279.5C 235.904,277.57 224.904,266.903 222.5,247.5 Z"/></g>
<g><path style="opacity:0.936" fill="#000000" d="M 135.5,348.5 C 149.6,347.969 163.6,348.802 177.5,351C 205.451,360.227 220.117,379.561 221.5,409C 219.909,439.921 204.242,459.587 174.5,468C 152.504,469.988 130.504,469.988 108.5,468C 87.9865,461.31 76.9865,447.143 75.5,425.5C 81.5368,425.171 87.5368,425.504 93.5,426.5C 95.1645,440.33 102.831,448.497 116.5,451C 134.868,451.902 153.201,451.569 171.5,450C 191.505,443.657 202.172,429.991 203.5,409C 202.11,387.609 191.11,373.942 170.5,368C 158.869,366.732 147.203,366.232 135.5,366.5C 135.5,360.5 135.5,354.5 135.5,348.5 Z"/></g>
</svg>
